<?xml version="1.0" encoding="UTF-8" standalone="no"?>
<!-- Created with Inkscape (http://www.inkscape.org/) -->

<svg
   xmlns:dc="http://purl.org/dc/elements/1.1/"
   xmlns:cc="http://creativecommons.org/ns#"
   xmlns:rdf="http://www.w3.org/1999/02/22-rdf-syntax-ns#"
   xmlns:svg="http://www.w3.org/2000/svg"
   xmlns="http://www.w3.org/2000/svg"
   xmlns:sodipodi="http://sodipodi.sourceforge.net/DTD/sodipodi-0.dtd"
   xmlns:inkscape="http://www.inkscape.org/namespaces/inkscape"
   width="200"
   height="200"
   viewBox="0 0 52.916665 52.916668"
   version="1.1"
   id="svg8"
   inkscape:version="0.92.3 (2405546, 2018-03-11)"
   sodipodi:docname="icono.svg">
  <defs
     id="defs2" />
  <sodipodi:namedview
     id="base"
     pagecolor="#ffffff"
     bordercolor="#666666"
     borderopacity="1.0"
     inkscape:pageopacity="0.0"
     inkscape:pageshadow="2"
     inkscape:zoom="1.979899"
     inkscape:cx="73.412107"
     inkscape:cy="116.81627"
     inkscape:document-units="mm"
     inkscape:current-layer="layer1"
     showgrid="false"
     units="px"
     inkscape:window-width="1366"
     inkscape:window-height="745"
     inkscape:window-x="-8"
     inkscape:window-y="-8"
     inkscape:window-maximized="1"
     inkscape:snap-global="false" />
  <metadata
     id="metadata5">
    <rdf:RDF>
      <cc:Work
         rdf:about="">
        <dc:format>image/svg+xml</dc:format>
        <dc:type
           rdf:resource="http://purl.org/dc/dcmitype/StillImage" />
        <dc:title></dc:title>
      </cc:Work>
    </rdf:RDF>
  </metadata>
  <g
     inkscape:label="Capa 1"
     inkscape:groupmode="layer"
     id="layer1"
     transform="translate(0,-244.08332)">
    <rect
       style="fill:#27ae60;fill-opacity:1;fill-rule:evenodd;stroke:none;stroke-width:2.16031361;stroke-linejoin:miter;stroke-miterlimit:4;stroke-dasharray:none;stroke-dashoffset:0;stroke-opacity:1"
       id="rect815"
       width="52.916668"
       height="52.916668"
       x="2.5687237e-008"
       y="244.08334" />
    <path
       style="fill:#bdc3c7;fill-opacity:1;stroke:none;stroke-width:0.26458332px;stroke-linecap:butt;stroke-linejoin:miter;stroke-opacity:1"
       d="m -4.2427828,257.21799 c 0,0 7.2597497,7.30368 10.4888391,6.04762 3.345093,-1.30119 5.1593687,-5.59687 8.5044627,-6.89806 3.786841,-1.47302 12.812309,-1.43603 16.536458,0.18898 3.268493,1.42619 5.512568,7.18866 8.787946,8.59897 2.97995,1.2831 0.620056,1.06343 3.68527,-1e-5 3.648717,-1.26588 9.16592,-7.08705 9.16592,-7.08705 l 0.0945,28.06473 c 0,0 -4.079263,-8.50712 -8.126489,-9.63839 -5.602255,-1.56593 -7.216221,2.58545 -12.945684,5.76413 -3.719236,2.06342 -13.881901,1.64128 -17.76488,-0.0945 -3.936173,-1.75954 -4.014627,-5.00939 -7.8430057,-6.99256 -3.3145602,-1.717 -10.7723212,8.12649 -10.7723212,8.12649 z"
       id="path6228"
       inkscape:connector-curvature="0"
       sodipodi:nodetypes="csssssccsssscc" />
    <path
       style="opacity:1;vector-effect:none;fill:#27ae60;fill-opacity:1;fill-rule:evenodd;stroke:none;stroke-width:0.66631436;stroke-linecap:butt;stroke-linejoin:miter;stroke-miterlimit:4;stroke-dasharray:none;stroke-dashoffset:0;stroke-opacity:1"
       d="m 36.484148,270.76846 c -3e-6,5.21876 -6.326349,8.88243 -13.559896,8.78794 -6.288069,-0.0821 -11.764505,-4.51412 -11.764508,-9.73288 -4e-6,-5.21877 5.664885,-10.96132 11.953496,-10.96132 6.288611,0 13.370912,6.68749 13.370908,11.90626 z"
       id="path6230"
       inkscape:connector-curvature="0"
       sodipodi:nodetypes="sssss" />
    <path
       style="fill:#27ae60;fill-opacity:1;stroke:none;stroke-width:0.26458332px;stroke-linecap:butt;stroke-linejoin:miter;stroke-opacity:1"
       d="m 54.532512,262.79314 c 0,0 -11.436785,3.49015 -10.488839,8.59896 0.747607,4.02911 1.881535,2.98968 4.245973,3.6833 2.364437,0.69361 5.959384,2.26983 5.959384,2.26983 z"
       id="path6233"
       inkscape:connector-curvature="0"
       sodipodi:nodetypes="csscc" />
    <g
       id="g6252"
       transform="translate(-2.0694197)">
      <path
         sodipodi:nodetypes="czcczcc"
         inkscape:connector-curvature="0"
         id="path6243"
         d="m 19.97979,252.737 c 0,0 -1.152991,1.60104 -1.170579,4.98381 -0.01759,3.38276 1.622314,5.56995 1.622314,5.56995 l 0.540773,-0.54077 c -0.0096,0.0765 -1.467716,-2.72409 -1.608297,-5.1418 -0.140579,-2.41773 1.067529,-4.48393 1.067529,-4.48393 z"
         style="fill:#95a5a6;fill-opacity:1;stroke:none;stroke-width:0.30283207px;stroke-linecap:butt;stroke-linejoin:miter;stroke-opacity:1" />
      <path
         style="fill:#2c3e50;fill-opacity:1;stroke:none;stroke-width:0.30283207px;stroke-linecap:butt;stroke-linejoin:miter;stroke-opacity:1"
         d="m 20.740581,254.2241 -0.309051,-1.09984 c 0,0 -1.120915,1.62315 -1.067529,4.48393 0.06781,3.63364 1.608297,5.1418 1.608297,5.1418 l 0.341858,-1.0503 c 0,0 -1.379516,-1.03208 -1.510414,-4.03414 -0.110781,-2.54078 0.936839,-3.44145 0.936839,-3.44145 z"
         id="path6245"
         inkscape:connector-curvature="0"
         sodipodi:nodetypes="ccsccsc" />
      <path
         sodipodi:nodetypes="cscczcc"
         inkscape:connector-curvature="0"
         id="path6235"
         d="m 20.528831,253.48548 c 0,0 -0.846889,2.05267 -0.850446,3.86244 -0.004,2.03444 1.452846,4.89006 1.452846,4.89006 l 1.169364,-0.24804 c -0.0084,0.0669 -1.24734,-2.70685 -1.370164,-4.8192 -0.122824,-2.11236 1.039438,-2.97656 1.039438,-2.97656 z"
         style="fill:#7f8c8d;fill-opacity:1;stroke:none;stroke-width:0.26458332px;stroke-linecap:butt;stroke-linejoin:miter;stroke-opacity:1" />
      <path
         style="fill:#95a5a6;fill-opacity:1;stroke:none;stroke-width:0.26458332px;stroke-linecap:butt;stroke-linejoin:miter;stroke-opacity:1"
         d="m 21.735826,253.57236 c 0,0 -1.007364,1.39882 -1.022731,4.35433 -0.01537,2.95551 1.417411,4.86645 1.417411,4.86645 l 0.472471,-0.47247 c -0.0084,0.0669 -1.282339,-2.38002 -1.405163,-4.49237 -0.122824,-2.11236 0.932696,-3.9176 0.932696,-3.9176 z"
         id="path6239"
         inkscape:connector-curvature="0"
         sodipodi:nodetypes="czcczcc" />
      <path
         sodipodi:nodetypes="ccsccsc"
         inkscape:connector-curvature="0"
         id="path6241"
         d="M 22.400527,254.87163 22.13051,253.9107 c 0,0 -0.979339,1.41814 -0.932696,3.9176 0.05924,3.17469 1.405163,4.49237 1.405163,4.49237 l 0.29868,-0.91764 c 0,0 -1.205278,-0.90173 -1.319643,-3.52462 -0.09679,-2.21987 0.818513,-3.00678 0.818513,-3.00678 z"
         style="fill:#2c3e50;fill-opacity:1;stroke:none;stroke-width:0.26458332px;stroke-linecap:butt;stroke-linejoin:miter;stroke-opacity:1" />
    </g>
    <g
       id="g6264"
       transform="rotate(25.862235,-28.390236,254.87182)">
      <path
         style="fill:#95a5a6;fill-opacity:1;stroke:none;stroke-width:0.30283207px;stroke-linecap:butt;stroke-linejoin:miter;stroke-opacity:1"
         d="m 19.97979,252.737 c 0,0 -1.152991,1.60104 -1.170579,4.98381 -0.01759,3.38276 1.622314,5.56995 1.622314,5.56995 l 0.540773,-0.54077 c -0.0096,0.0765 -1.467716,-2.72409 -1.608297,-5.1418 -0.140579,-2.41773 1.067529,-4.48393 1.067529,-4.48393 z"
         id="path6254"
         inkscape:connector-curvature="0"
         sodipodi:nodetypes="czcczcc" />
      <path
         sodipodi:nodetypes="ccsccsc"
         inkscape:connector-curvature="0"
         id="path6256"
         d="m 20.740581,254.2241 -0.309051,-1.09984 c 0,0 -1.120915,1.62315 -1.067529,4.48393 0.06781,3.63364 1.608297,5.1418 1.608297,5.1418 l 0.341858,-1.0503 c 0,0 -1.379516,-1.03208 -1.510414,-4.03414 -0.110781,-2.54078 0.936839,-3.44145 0.936839,-3.44145 z"
         style="fill:#2c3e50;fill-opacity:1;stroke:none;stroke-width:0.30283207px;stroke-linecap:butt;stroke-linejoin:miter;stroke-opacity:1" />
      <path
         style="fill:#7f8c8d;fill-opacity:1;stroke:none;stroke-width:0.26458332px;stroke-linecap:butt;stroke-linejoin:miter;stroke-opacity:1"
         d="m 20.528831,253.48548 c 0,0 -0.846889,2.05267 -0.850446,3.86244 -0.004,2.03444 1.452846,4.89006 1.452846,4.89006 l 1.169364,-0.24804 c -0.0084,0.0669 -1.24734,-2.70685 -1.370164,-4.8192 -0.122824,-2.11236 1.039438,-2.97656 1.039438,-2.97656 z"
         id="path6258"
         inkscape:connector-curvature="0"
         sodipodi:nodetypes="cscczcc" />
      <path
         sodipodi:nodetypes="czcczcc"
         inkscape:connector-curvature="0"
         id="path6260"
         d="m 21.735826,253.57236 c 0,0 -1.007364,1.39882 -1.022731,4.35433 -0.01537,2.95551 1.417411,4.86645 1.417411,4.86645 l 0.472471,-0.47247 c -0.0084,0.0669 -1.282339,-2.38002 -1.405163,-4.49237 -0.122824,-2.11236 0.932696,-3.9176 0.932696,-3.9176 z"
         style="fill:#95a5a6;fill-opacity:1;stroke:none;stroke-width:0.26458332px;stroke-linecap:butt;stroke-linejoin:miter;stroke-opacity:1" />
      <path
         style="fill:#2c3e50;fill-opacity:1;stroke:none;stroke-width:0.26458332px;stroke-linecap:butt;stroke-linejoin:miter;stroke-opacity:1"
         d="M 22.400527,254.87163 22.13051,253.9107 c 0,0 -0.979339,1.41814 -0.932696,3.9176 0.05924,3.17469 1.405163,4.49237 1.405163,4.49237 l 0.29868,-0.91764 c 0,0 -1.205278,-0.90173 -1.319643,-3.52462 -0.09679,-2.21987 0.818513,-3.00678 0.818513,-3.00678 z"
         id="path6262"
         inkscape:connector-curvature="0"
         sodipodi:nodetypes="ccsccsc" />
    </g>
    <g
       id="g6276"
       transform="matrix(-0.94936862,-0.31416434,-0.31416434,0.94936862,134.98996,22.790612)">
      <path
         style="fill:#95a5a6;fill-opacity:1;stroke:none;stroke-width:0.30283207px;stroke-linecap:butt;stroke-linejoin:miter;stroke-opacity:1"
         d="m 19.97979,252.737 c 0,0 -1.152991,1.60104 -1.170579,4.98381 -0.01759,3.38276 1.622314,5.56995 1.622314,5.56995 l 0.540773,-0.54077 c -0.0096,0.0765 -1.467716,-2.72409 -1.608297,-5.1418 -0.140579,-2.41773 1.067529,-4.48393 1.067529,-4.48393 z"
         id="path6266"
         inkscape:connector-curvature="0"
         sodipodi:nodetypes="czcczcc" />
      <path
         sodipodi:nodetypes="ccsccsc"
         inkscape:connector-curvature="0"
         id="path6268"
         d="m 20.740581,254.2241 -0.309051,-1.09984 c 0,0 -1.120915,1.62315 -1.067529,4.48393 0.06781,3.63364 1.608297,5.1418 1.608297,5.1418 l 0.341858,-1.0503 c 0,0 -1.379516,-1.03208 -1.510414,-4.03414 -0.110781,-2.54078 0.936839,-3.44145 0.936839,-3.44145 z"
         style="fill:#2c3e50;fill-opacity:1;stroke:none;stroke-width:0.30283207px;stroke-linecap:butt;stroke-linejoin:miter;stroke-opacity:1" />
      <path
         style="fill:#7f8c8d;fill-opacity:1;stroke:none;stroke-width:0.26458332px;stroke-linecap:butt;stroke-linejoin:miter;stroke-opacity:1"
         d="m 20.528831,253.48548 c 0,0 -0.846889,2.05267 -0.850446,3.86244 -0.004,2.03444 1.452846,4.89006 1.452846,4.89006 l 1.169364,-0.24804 c -0.0084,0.0669 -1.24734,-2.70685 -1.370164,-4.8192 -0.122824,-2.11236 1.039438,-2.97656 1.039438,-2.97656 z"
         id="path6270"
         inkscape:connector-curvature="0"
         sodipodi:nodetypes="cscczcc" />
      <path
         sodipodi:nodetypes="czcczcc"
         inkscape:connector-curvature="0"
         id="path6272"
         d="m 21.735826,253.57236 c 0,0 -1.007364,1.39882 -1.022731,4.35433 -0.01537,2.95551 1.417411,4.86645 1.417411,4.86645 l 0.472471,-0.47247 c -0.0084,0.0669 -1.282339,-2.38002 -1.405163,-4.49237 -0.122824,-2.11236 0.932696,-3.9176 0.932696,-3.9176 z"
         style="fill:#95a5a6;fill-opacity:1;stroke:none;stroke-width:0.26458332px;stroke-linecap:butt;stroke-linejoin:miter;stroke-opacity:1" />
      <path
         style="fill:#2c3e50;fill-opacity:1;stroke:none;stroke-width:0.26458332px;stroke-linecap:butt;stroke-linejoin:miter;stroke-opacity:1"
         d="M 22.400527,254.87163 22.13051,253.9107 c 0,0 -0.979339,1.41814 -0.932696,3.9176 0.05924,3.17469 1.405163,4.49237 1.405163,4.49237 l 0.29868,-0.91764 c 0,0 -1.205278,-0.90173 -1.319643,-3.52462 -0.09679,-2.21987 0.818513,-3.00678 0.818513,-3.00678 z"
         id="path6274"
         inkscape:connector-curvature="0"
         sodipodi:nodetypes="ccsccsc" />
    </g>
    <g
       transform="matrix(-0.88694974,0.46186597,0.46186597,0.88694974,-69.913809,41.695194)"
       id="g6288">
      <path
         sodipodi:nodetypes="czcczcc"
         inkscape:connector-curvature="0"
         id="path6278"
         d="m 19.97979,252.737 c 0,0 -1.152991,1.60104 -1.170579,4.98381 -0.01759,3.38276 1.622314,5.56995 1.622314,5.56995 l 0.540773,-0.54077 c -0.0096,0.0765 -1.467716,-2.72409 -1.608297,-5.1418 -0.140579,-2.41773 1.067529,-4.48393 1.067529,-4.48393 z"
         style="fill:#95a5a6;fill-opacity:1;stroke:none;stroke-width:0.30283207px;stroke-linecap:butt;stroke-linejoin:miter;stroke-opacity:1" />
      <path
         style="fill:#2c3e50;fill-opacity:1;stroke:none;stroke-width:0.30283207px;stroke-linecap:butt;stroke-linejoin:miter;stroke-opacity:1"
         d="m 20.740581,254.2241 -0.309051,-1.09984 c 0,0 -1.120915,1.62315 -1.067529,4.48393 0.06781,3.63364 1.608297,5.1418 1.608297,5.1418 l 0.341858,-1.0503 c 0,0 -1.379516,-1.03208 -1.510414,-4.03414 -0.110781,-2.54078 0.936839,-3.44145 0.936839,-3.44145 z"
         id="path6280"
         inkscape:connector-curvature="0"
         sodipodi:nodetypes="ccsccsc" />
      <path
         sodipodi:nodetypes="cscczcc"
         inkscape:connector-curvature="0"
         id="path6282"
         d="m 20.528831,253.48548 c 0,0 -0.846889,2.05267 -0.850446,3.86244 -0.004,2.03444 1.452846,4.89006 1.452846,4.89006 l 1.169364,-0.24804 c -0.0084,0.0669 -1.24734,-2.70685 -1.370164,-4.8192 -0.122824,-2.11236 1.039438,-2.97656 1.039438,-2.97656 z"
         style="fill:#7f8c8d;fill-opacity:1;stroke:none;stroke-width:0.26458332px;stroke-linecap:butt;stroke-linejoin:miter;stroke-opacity:1" />
      <path
         style="fill:#95a5a6;fill-opacity:1;stroke:none;stroke-width:0.26458332px;stroke-linecap:butt;stroke-linejoin:miter;stroke-opacity:1"
         d="m 21.735826,253.57236 c 0,0 -1.007364,1.39882 -1.022731,4.35433 -0.01537,2.95551 1.417411,4.86645 1.417411,4.86645 l 0.472471,-0.47247 c -0.0084,0.0669 -1.282339,-2.38002 -1.405163,-4.49237 -0.122824,-2.11236 0.932696,-3.9176 0.932696,-3.9176 z"
         id="path6284"
         inkscape:connector-curvature="0"
         sodipodi:nodetypes="czcczcc" />
      <path
         sodipodi:nodetypes="ccsccsc"
         inkscape:connector-curvature="0"
         id="path6286"
         d="M 22.400527,254.87163 22.13051,253.9107 c 0,0 -0.979339,1.41814 -0.932696,3.9176 0.05924,3.17469 1.405163,4.49237 1.405163,4.49237 l 0.29868,-0.91764 c 0,0 -1.205278,-0.90173 -1.319643,-3.52462 -0.09679,-2.21987 0.818513,-3.00678 0.818513,-3.00678 z"
         style="fill:#2c3e50;fill-opacity:1;stroke:none;stroke-width:0.26458332px;stroke-linecap:butt;stroke-linejoin:miter;stroke-opacity:1" />
    </g>
    <g
       id="g6300"
       transform="matrix(-0.72615065,0.37813222,0.37813222,0.72615065,-36.33647,70.459319)">
      <path
         style="fill:#95a5a6;fill-opacity:1;stroke:none;stroke-width:0.30283207px;stroke-linecap:butt;stroke-linejoin:miter;stroke-opacity:1"
         d="m 19.97979,252.737 c 0,0 -1.152991,1.60104 -1.170579,4.98381 -0.01759,3.38276 1.622314,5.56995 1.622314,5.56995 l 0.540773,-0.54077 c -0.0096,0.0765 -1.467716,-2.72409 -1.608297,-5.1418 -0.140579,-2.41773 1.067529,-4.48393 1.067529,-4.48393 z"
         id="path6290"
         inkscape:connector-curvature="0"
         sodipodi:nodetypes="czcczcc" />
      <path
         sodipodi:nodetypes="ccsccsc"
         inkscape:connector-curvature="0"
         id="path6292"
         d="m 20.740581,254.2241 -0.309051,-1.09984 c 0,0 -1.120915,1.62315 -1.067529,4.48393 0.06781,3.63364 1.608297,5.1418 1.608297,5.1418 l 0.341858,-1.0503 c 0,0 -1.379516,-1.03208 -1.510414,-4.03414 -0.110781,-2.54078 0.936839,-3.44145 0.936839,-3.44145 z"
         style="fill:#2c3e50;fill-opacity:1;stroke:none;stroke-width:0.30283207px;stroke-linecap:butt;stroke-linejoin:miter;stroke-opacity:1" />
      <path
         style="fill:#7f8c8d;fill-opacity:1;stroke:none;stroke-width:0.26458332px;stroke-linecap:butt;stroke-linejoin:miter;stroke-opacity:1"
         d="m 20.528831,253.48548 c 0,0 -0.846889,2.05267 -0.850446,3.86244 -0.004,2.03444 1.452846,4.89006 1.452846,4.89006 l 1.169364,-0.24804 c -0.0084,0.0669 -1.24734,-2.70685 -1.370164,-4.8192 -0.122824,-2.11236 1.039438,-2.97656 1.039438,-2.97656 z"
         id="path6294"
         inkscape:connector-curvature="0"
         sodipodi:nodetypes="cscczcc" />
      <path
         sodipodi:nodetypes="czcczcc"
         inkscape:connector-curvature="0"
         id="path6296"
         d="m 21.735826,253.57236 c 0,0 -1.007364,1.39882 -1.022731,4.35433 -0.01537,2.95551 1.417411,4.86645 1.417411,4.86645 l 0.472471,-0.47247 c -0.0084,0.0669 -1.282339,-2.38002 -1.405163,-4.49237 -0.122824,-2.11236 0.932696,-3.9176 0.932696,-3.9176 z"
         style="fill:#95a5a6;fill-opacity:1;stroke:none;stroke-width:0.26458332px;stroke-linecap:butt;stroke-linejoin:miter;stroke-opacity:1" />
      <path
         style="fill:#2c3e50;fill-opacity:1;stroke:none;stroke-width:0.26458332px;stroke-linecap:butt;stroke-linejoin:miter;stroke-opacity:1"
         d="M 22.400527,254.87163 22.13051,253.9107 c 0,0 -0.979339,1.41814 -0.932696,3.9176 0.05924,3.17469 1.405163,4.49237 1.405163,4.49237 l 0.29868,-0.91764 c 0,0 -1.205278,-0.90173 -1.319643,-3.52462 -0.09679,-2.21987 0.818513,-3.00678 0.818513,-3.00678 z"
         id="path6298"
         inkscape:connector-curvature="0"
         sodipodi:nodetypes="ccsccsc" />
    </g>
    <g
       transform="matrix(0.74331826,0.36033069,-0.36033069,0.74331826,123.28876,76.702036)"
       id="g6312">
      <path
         sodipodi:nodetypes="czcczcc"
         inkscape:connector-curvature="0"
         id="path6302"
         d="m 19.97979,252.737 c 0,0 -1.152991,1.60104 -1.170579,4.98381 -0.01759,3.38276 1.622314,5.56995 1.622314,5.56995 l 0.540773,-0.54077 c -0.0096,0.0765 -1.467716,-2.72409 -1.608297,-5.1418 -0.140579,-2.41773 1.067529,-4.48393 1.067529,-4.48393 z"
         style="fill:#95a5a6;fill-opacity:1;stroke:none;stroke-width:0.30283207px;stroke-linecap:butt;stroke-linejoin:miter;stroke-opacity:1" />
      <path
         style="fill:#2c3e50;fill-opacity:1;stroke:none;stroke-width:0.30283207px;stroke-linecap:butt;stroke-linejoin:miter;stroke-opacity:1"
         d="m 20.740581,254.2241 -0.309051,-1.09984 c 0,0 -1.120915,1.62315 -1.067529,4.48393 0.06781,3.63364 1.608297,5.1418 1.608297,5.1418 l 0.341858,-1.0503 c 0,0 -1.379516,-1.03208 -1.510414,-4.03414 -0.110781,-2.54078 0.936839,-3.44145 0.936839,-3.44145 z"
         id="path6304"
         inkscape:connector-curvature="0"
         sodipodi:nodetypes="ccsccsc" />
      <path
         sodipodi:nodetypes="cscczcc"
         inkscape:connector-curvature="0"
         id="path6306"
         d="m 20.528831,253.48548 c 0,0 -0.846889,2.05267 -0.850446,3.86244 -0.004,2.03444 1.452846,4.89006 1.452846,4.89006 l 1.169364,-0.24804 c -0.0084,0.0669 -1.24734,-2.70685 -1.370164,-4.8192 -0.122824,-2.11236 1.039438,-2.97656 1.039438,-2.97656 z"
         style="fill:#7f8c8d;fill-opacity:1;stroke:none;stroke-width:0.26458332px;stroke-linecap:butt;stroke-linejoin:miter;stroke-opacity:1" />
      <path
         style="fill:#95a5a6;fill-opacity:1;stroke:none;stroke-width:0.26458332px;stroke-linecap:butt;stroke-linejoin:miter;stroke-opacity:1"
         d="m 21.735826,253.57236 c 0,0 -1.007364,1.39882 -1.022731,4.35433 -0.01537,2.95551 1.417411,4.86645 1.417411,4.86645 l 0.472471,-0.47247 c -0.0084,0.0669 -1.282339,-2.38002 -1.405163,-4.49237 -0.122824,-2.11236 0.932696,-3.9176 0.932696,-3.9176 z"
         id="path6308"
         inkscape:connector-curvature="0"
         sodipodi:nodetypes="czcczcc" />
      <path
         sodipodi:nodetypes="ccsccsc"
         inkscape:connector-curvature="0"
         id="path6310"
         d="M 22.400527,254.87163 22.13051,253.9107 c 0,0 -0.979339,1.41814 -0.932696,3.9176 0.05924,3.17469 1.405163,4.49237 1.405163,4.49237 l 0.29868,-0.91764 c 0,0 -1.205278,-0.90173 -1.319643,-3.52462 -0.09679,-2.21987 0.818513,-3.00678 0.818513,-3.00678 z"
         style="fill:#2c3e50;fill-opacity:1;stroke:none;stroke-width:0.26458332px;stroke-linecap:butt;stroke-linejoin:miter;stroke-opacity:1" />
    </g>
  </g>
</svg>
