<?xml version="1.0" encoding="UTF-8" standalone="no"?>
<!-- Created with Inkscape (http://www.inkscape.org/) -->

<svg
   xmlns:osb="http://www.openswatchbook.org/uri/2009/osb"
   xmlns:dc="http://purl.org/dc/elements/1.1/"
   xmlns:cc="http://creativecommons.org/ns#"
   xmlns:rdf="http://www.w3.org/1999/02/22-rdf-syntax-ns#"
   xmlns:svg="http://www.w3.org/2000/svg"
   xmlns="http://www.w3.org/2000/svg"
   xmlns:xlink="http://www.w3.org/1999/xlink"
   xmlns:sodipodi="http://sodipodi.sourceforge.net/DTD/sodipodi-0.dtd"
   xmlns:inkscape="http://www.inkscape.org/namespaces/inkscape"
   width="200mm"
   height="200mm"
   viewBox="0 0 200 200"
   version="1.1"
   id="svg8"
   inkscape:version="0.92.3 (2405546, 2018-03-11)"
   sodipodi:docname="icono01.svg">
  <defs
     id="defs2">
    <inkscape:path-effect
       effect="bspline"
       id="path-effect2629"
       is_visible="true"
       weight="33.333333"
       steps="2"
       helper_size="0"
       apply_no_weight="true"
       apply_with_weight="true"
       only_selected="false" />
    <inkscape:path-effect
       effect="simplify"
       id="path-effect2627"
       is_visible="true"
       steps="1"
       threshold="0.000408163"
       smooth_angles="360"
       helper_size="0"
       simplify_individual_paths="false"
       simplify_just_coalesce="false"
       simplifyindividualpaths="false"
       simplifyJustCoalesce="false" />
    <linearGradient
       inkscape:collect="always"
       id="linearGradient2573">
      <stop
         style="stop-color:#2c3e50;stop-opacity:1;"
         offset="0"
         id="stop2569" />
      <stop
         style="stop-color:#2c3e50;stop-opacity:0;"
         offset="1"
         id="stop2571" />
    </linearGradient>
    <linearGradient
       id="linearGradient2299"
       osb:paint="solid">
      <stop
         style="stop-color:#d35400;stop-opacity:1;"
         offset="0"
         id="stop2297" />
    </linearGradient>
    <linearGradient
       inkscape:collect="always"
       xlink:href="#linearGradient2573"
       id="linearGradient2575"
       x1="14.517304"
       y1="202.21308"
       x2="42.923129"
       y2="202.21308"
       gradientUnits="userSpaceOnUse" />
  </defs>
  <sodipodi:namedview
     id="base"
     pagecolor="#ffffff"
     bordercolor="#666666"
     borderopacity="1.0"
     inkscape:pageopacity="0.0"
     inkscape:pageshadow="2"
     inkscape:zoom="0.35355339"
     inkscape:cx="956.54713"
     inkscape:cy="29.819735"
     inkscape:document-units="mm"
     inkscape:current-layer="layer1"
     showgrid="false"
     inkscape:window-width="1366"
     inkscape:window-height="745"
     inkscape:window-x="-8"
     inkscape:window-y="-8"
     inkscape:window-maximized="1" />
  <metadata
     id="metadata5">
    <rdf:RDF>
      <cc:Work
         rdf:about="">
        <dc:format>image/svg+xml</dc:format>
        <dc:type
           rdf:resource="http://purl.org/dc/dcmitype/StillImage" />
        <dc:title></dc:title>
      </cc:Work>
    </rdf:RDF>
  </metadata>
  <g
     inkscape:label="Capa 1"
     inkscape:groupmode="layer"
     id="layer1"
     transform="translate(0,-97)">
    <rect
       id="rect20"
       width="203.33861"
       height="200.74078"
       x="-1.929458"
       y="96.843895"
       style="fill:#e67e22;fill-opacity:1;stroke-width:0.23002754" />
    <g
       id="g2551"
       transform="matrix(0.92223278,0,0,0.89037834,2.3111586,22.980182)">
      <ellipse
         ry="37.041664"
         rx="39.6875"
         cy="157.90477"
         cx="103.94345"
         id="path2315"
         style="fill:#f1c40f;fill-opacity:1;stroke-width:0.28749907" />
      <path
         transform="matrix(0.52762273,0,0,0.57150952,32.862366,74.62137)"
         d="m 67.112541,174.24643 c 16.959015,17.21847 27.925106,39.68548 31.75,63.5"
         sodipodi:t0="0"
         sodipodi:argument="0.79298943"
         sodipodi:radius="70.995155"
         sodipodi:revolution="0.050000001"
         sodipodi:expansion="1"
         sodipodi:cy="174.24643"
         sodipodi:cx="67.112541"
         id="path2323"
         style="fill:none;fill-opacity:1;fill-rule:evenodd;stroke:#f1c40f;stroke-width:0.26458332;stroke-opacity:1"
         sodipodi:type="spiral" />
      <path
         transform="matrix(-0.54837187,0,0,0.65562288,63.775612,59.049617)"
         sodipodi:type="spiral"
         style="fill:none;fill-opacity:1;fill-rule:evenodd;stroke:#f1c40f;stroke-width:0.26458332;stroke-opacity:1"
         id="path2434"
         sodipodi:cx="-141.12749"
         sodipodi:cy="171.57373"
         sodipodi:expansion="1"
         sodipodi:revolution="0.050000001"
         sodipodi:radius="70.995155"
         sodipodi:argument="0.79298943"
         sodipodi:t0="0"
         d="m -141.12749,171.57373 c 16.95902,17.21847 27.92511,39.68549 31.75,63.5" />
      <g
         transform="matrix(0.51307393,0,0,0.80051703,193.45757,134.43021)"
         id="g2455">
        <rect
           style="fill:#bdc3c7;fill-opacity:1;fill-rule:evenodd;stroke:#bdc3c7;stroke-width:1.46500003;stroke-linejoin:round;stroke-miterlimit:4;stroke-dasharray:none;stroke-opacity:1"
           id="rect2440"
           width="75.086525"
           height="5.5640206"
           x="-211.14293"
           y="95.138779"
           ry="2.7820103" />
        <rect
           ry="2.7820103"
           y="100.7028"
           x="-211.14293"
           height="5.5640206"
           width="75.086525"
           id="rect2442"
           style="fill:#bdc3c7;fill-opacity:1;fill-rule:evenodd;stroke:#bdc3c7;stroke-width:1.46500003;stroke-linejoin:round;stroke-miterlimit:4;stroke-dasharray:none;stroke-opacity:1" />
        <rect
           style="fill:#bdc3c7;fill-opacity:1;fill-rule:evenodd;stroke:#bdc3c7;stroke-width:1.46500003;stroke-linejoin:round;stroke-miterlimit:4;stroke-dasharray:none;stroke-opacity:1"
           id="rect2444"
           width="75.086525"
           height="5.5640206"
           x="-211.14293"
           y="106.26683"
           ry="2.7820103" />
        <rect
           ry="2.7820103"
           y="111.83086"
           x="-211.14293"
           height="5.5640206"
           width="75.086525"
           id="rect2446"
           style="fill:#bdc3c7;fill-opacity:1;fill-rule:evenodd;stroke:#bdc3c7;stroke-width:1.46500003;stroke-linejoin:round;stroke-miterlimit:4;stroke-dasharray:none;stroke-opacity:1" />
        <rect
           style="fill:#bdc3c7;fill-opacity:1;fill-rule:evenodd;stroke:#bdc3c7;stroke-width:1.46500003;stroke-linejoin:round;stroke-miterlimit:4;stroke-dasharray:none;stroke-opacity:1"
           id="rect2448"
           width="75.086525"
           height="5.5640206"
           x="-211.14293"
           y="117.39488"
           ry="2.7820103" />
      </g>
      <path
         transform="matrix(0.26458333,0,0,0.26458333,0,97)"
         inkscape:connector-curvature="0"
         id="path2483"
         d="m 466.73216,428.66864 c -1.20059,-1.20073 -5.20245,-1.28347 -70.70322,-1.46187 -45.80792,-0.12476 -70.14115,0.0586 -71.51903,0.53893 -1.14864,0.40043 -2.19827,0.6182 -2.3325,0.48397 -0.13424,-0.13424 -0.5787,-2.14462 -0.9877,-4.46751 -5.384,-30.57848 -15.20234,-59.26173 -28.9342,-84.52827 -2.13845,-3.93473 -3.8881,-7.3174 -3.8881,-7.51703 0,-0.19963 2.65179,1.77885 5.89286,4.39661 19.30957,15.59603 42.20164,26.23211 67.32143,31.27877 49.30702,9.90597 101.99764,-4.58009 137.32143,-37.75333 2.0625,-1.93693 3.75,-3.3677 3.75,-3.17948 0,0.18822 -2.20855,4.8152 -4.90789,10.28219 -12.11525,24.53706 -22.36523,55.45119 -27.21563,82.08282 -0.85861,4.71429 -1.77795,9.14418 -2.04297,9.8442 -0.46219,1.22084 -0.53378,1.22084 -1.75448,0 z"
         style="fill:#f1c40f;fill-opacity:1;fill-rule:evenodd;stroke:#f1c40f;stroke-width:3.95500565;stroke-linejoin:round;stroke-miterlimit:4;stroke-dasharray:none;stroke-opacity:1" />
      <g
         transform="matrix(1.4111103,0,0,1.9105674,-140.25333,-159.64735)"
         id="g2510">
        <path
           d="m 163.85268,167.54315 c -1.30763,0.17056 -0.87505,-1.67851 -0.28349,-2.17336 1.60311,-1.34103 3.87458,-0.008 4.63021,1.6064"
           sodipodi:t0="0"
           sodipodi:argument="-3.2712953"
           sodipodi:radius="4.3835464"
           sodipodi:revolution="0.5"
           sodipodi:expansion="1"
           sodipodi:cy="167.54315"
           sodipodi:cx="163.85268"
           id="path2493"
           style="fill:none;fill-rule:evenodd;stroke:#000000;stroke-width:0.26458332"
           sodipodi:type="spiral" />
        <path
           sodipodi:type="spiral"
           style="fill:none;fill-rule:evenodd;stroke:#000000;stroke-width:0.26458332"
           id="path2495"
           sodipodi:cx="181.23958"
           sodipodi:cy="165.27527"
           sodipodi:expansion="1"
           sodipodi:revolution="0.5"
           sodipodi:radius="4.3835464"
           sodipodi:argument="-3.2712953"
           sodipodi:t0="0"
           d="m 181.23958,165.27527 c -1.30763,0.17056 -0.87505,-1.67851 -0.28348,-2.17336 1.60311,-1.34103 3.87458,-0.008 4.6302,1.60639" />
        <path
           d="m 168.1994,166.97618 c -1.30763,0.17056 -0.87505,-1.67851 -0.28348,-2.17336 1.60311,-1.34103 3.87458,-0.008 4.63021,1.6064"
           sodipodi:t0="0"
           sodipodi:argument="-3.2712953"
           sodipodi:radius="4.3835464"
           sodipodi:revolution="0.5"
           sodipodi:expansion="1"
           sodipodi:cy="166.97618"
           sodipodi:cx="168.1994"
           id="path2497"
           style="fill:none;fill-rule:evenodd;stroke:#000000;stroke-width:0.26458332"
           sodipodi:type="spiral" />
        <path
           sodipodi:type="spiral"
           style="fill:none;fill-rule:evenodd;stroke:#000000;stroke-width:0.26458332"
           id="path2499"
           sodipodi:cx="172.54613"
           sodipodi:cy="166.40921"
           sodipodi:expansion="1"
           sodipodi:revolution="0.5"
           sodipodi:radius="4.3835464"
           sodipodi:argument="-3.2712953"
           sodipodi:t0="0"
           d="m 172.54613,166.40921 c -1.30763,0.17056 -0.87505,-1.67851 -0.28349,-2.17336 1.60311,-1.34103 3.87459,-0.008 4.63021,1.6064" />
        <path
           d="m 176.89285,165.84224 c -1.30762,0.17056 -0.87505,-1.67851 -0.28348,-2.17336 1.60311,-1.34103 3.87458,-0.008 4.63021,1.60639"
           sodipodi:t0="0"
           sodipodi:argument="-3.2712953"
           sodipodi:radius="4.3835464"
           sodipodi:revolution="0.5"
           sodipodi:expansion="1"
           sodipodi:cy="165.84224"
           sodipodi:cx="176.89285"
           id="path2501"
           style="fill:none;fill-rule:evenodd;stroke:#000000;stroke-width:0.26458332"
           sodipodi:type="spiral" />
      </g>
      <path
         transform="matrix(0.71981293,0,0,1.0003844,34.099656,-0.07020248)"
         d="m 102.24255,210.25447 c 0.46823,-19.91562 7.48089,-39.29316 19.38686,-55.2155"
         sodipodi:t0="0"
         sodipodi:argument="-1.54729"
         sodipodi:radius="58.520096"
         sodipodi:revolution="0.050000001"
         sodipodi:expansion="1"
         sodipodi:cy="210.25447"
         sodipodi:cx="102.24255"
         id="path2512"
         style="fill:none;fill-rule:evenodd;stroke:#000000;stroke-width:0.26458332"
         sodipodi:type="spiral" />
      <path
         transform="matrix(-0.86758346,0.4972916,0.4972916,0.86758346,-79.511416,72.921827)"
         d="m -90.781746,211.01042 c -9.398914,-15.04155 -13.667004,-32.88588 -12.604614,-50.55528"
         sodipodi:t0="0"
         sodipodi:argument="-2.1292973"
         sodipodi:radius="52.102909"
         sodipodi:revolution="0.050000001"
         sodipodi:expansion="1"
         sodipodi:cy="211.01042"
         sodipodi:cx="-90.781746"
         id="path2514"
         style="fill:none;fill-rule:evenodd;stroke:#000000;stroke-width:0.26458332"
         sodipodi:type="spiral" />
      <path
         transform="matrix(0.25374098,0,0,0.67504929,126.26768,27.454947)"
         inkscape:transform-center-y="1.4675307"
         inkscape:transform-center-x="-0.067817381"
         d="m -83.922631,126.48204 -3.765416,-7.44774 -3.765415,-7.44774 8.33264,0.46292 8.332639,0.46293 -4.567224,6.98481 z"
         inkscape:randomized="0"
         inkscape:rounded="0"
         inkscape:flatsided="false"
         sodipodi:arg2="2.6734924"
         sodipodi:arg1="1.6262948"
         sodipodi:r2="4.8182702"
         sodipodi:r1="9.6365404"
         sodipodi:cy="116.86034"
         sodipodi:cx="-83.388092"
         sodipodi:sides="3"
         id="path2518"
         style="fill:#f1c40f;fill-opacity:1;fill-rule:evenodd;stroke:#f1c40f;stroke-width:1.46499991;stroke-linejoin:round;stroke-miterlimit:4;stroke-dasharray:none;stroke-opacity:1"
         sodipodi:type="star" />
      <path
         sodipodi:type="star"
         style="fill:#f1c40f;fill-opacity:1;fill-rule:evenodd;stroke:#f1c40f;stroke-width:1.46499991;stroke-linejoin:round;stroke-miterlimit:4;stroke-dasharray:none;stroke-opacity:1"
         id="path2520"
         sodipodi:sides="3"
         sodipodi:cx="-83.388092"
         sodipodi:cy="116.86034"
         sodipodi:r1="9.6365404"
         sodipodi:r2="4.8182702"
         sodipodi:arg1="1.6262948"
         sodipodi:arg2="2.6734924"
         inkscape:flatsided="false"
         inkscape:rounded="0"
         inkscape:randomized="0"
         d="m -83.922631,126.48204 -3.765416,-7.44774 -3.765415,-7.44774 8.33264,0.46292 8.332639,0.46293 -4.567224,6.98481 z"
         inkscape:transform-center-x="-6.3968525"
         inkscape:transform-center-y="-14.569331"
         transform="matrix(0.23873082,0.0859772,-0.22873265,0.63511646,174.4874,42.553136)" />
      <path
         sodipodi:type="star"
         style="fill:#f1c40f;fill-opacity:1;fill-rule:evenodd;stroke:#f1c40f;stroke-width:1.46499991;stroke-linejoin:round;stroke-miterlimit:4;stroke-dasharray:none;stroke-opacity:1"
         id="path2522"
         sodipodi:sides="3"
         sodipodi:cx="-83.388092"
         sodipodi:cy="116.86034"
         sodipodi:r1="9.6365404"
         sodipodi:r2="4.8182702"
         sodipodi:arg1="1.6262948"
         sodipodi:arg2="2.6734924"
         inkscape:flatsided="false"
         inkscape:rounded="0"
         inkscape:randomized="0"
         d="m -83.922631,126.48204 -3.765416,-7.44774 -3.765415,-7.44774 8.33264,0.46292 8.332639,0.46293 -4.567224,6.98481 z"
         inkscape:transform-center-x="20.493397"
         inkscape:transform-center-y="-41.790276"
         transform="matrix(0.2288138,-0.10967557,0.29177949,0.60873333,68.344157,28.007147)" />
      <path
         sodipodi:type="star"
         style="fill:#f1c40f;fill-opacity:1;fill-rule:evenodd;stroke:#f1c40f;stroke-width:1.46499991;stroke-linejoin:round;stroke-miterlimit:4;stroke-dasharray:none;stroke-opacity:1"
         id="path2524"
         sodipodi:sides="3"
         sodipodi:cx="-83.388092"
         sodipodi:cy="116.86034"
         sodipodi:r1="9.6365404"
         sodipodi:r2="4.8182702"
         sodipodi:arg1="1.6262948"
         sodipodi:arg2="2.6734924"
         inkscape:flatsided="false"
         inkscape:rounded="0"
         inkscape:randomized="0"
         d="m -83.922631,126.48204 -3.765416,-7.44774 -3.765415,-7.44774 8.33264,0.46292 8.332639,0.46293 -4.567224,6.98481 z"
         inkscape:transform-center-x="-40.940091"
         inkscape:transform-center-y="-30.039054"
         transform="matrix(0.14687496,0.20691117,-0.55046386,0.39074427,226.82389,98.447988)" />
      <path
         sodipodi:type="star"
         style="fill:#f1c40f;fill-opacity:1;fill-rule:evenodd;stroke:#f1c40f;stroke-width:1.46499991;stroke-linejoin:round;stroke-miterlimit:4;stroke-dasharray:none;stroke-opacity:1"
         id="path2526"
         sodipodi:sides="3"
         sodipodi:cx="-83.388092"
         sodipodi:cy="116.86034"
         sodipodi:r1="9.6365404"
         sodipodi:r2="4.8182702"
         sodipodi:arg1="1.6262948"
         sodipodi:arg2="2.6734924"
         inkscape:flatsided="false"
         inkscape:rounded="0"
         inkscape:randomized="0"
         d="m -83.922631,126.48204 -3.765416,-7.44774 -3.765415,-7.44774 8.33264,0.46292 8.332639,0.46293 -4.567224,6.98481 z"
         inkscape:transform-center-x="29.042829"
         inkscape:transform-center-y="-36.014031"
         transform="matrix(0.15351139,-0.20203648,0.5374953,0.40839974,11.782231,54.536042)" />
    </g>
    <g
       id="g2567"
       style="fill:#2c3e50;fill-opacity:1;stroke:#2c3e50;stroke-opacity:1"
       transform="matrix(1.2029464,0,0,2.2299946,129.38677,-288.9551)">
      <text
         id="text2555"
         y="206.12836"
         x="14.432554"
         style="font-style:normal;font-weight:normal;font-size:10.58333302px;line-height:1.25;font-family:sans-serif;letter-spacing:0px;word-spacing:0px;fill:#2c3e50;fill-opacity:1;stroke:#2c3e50;stroke-width:0.26458332;stroke-opacity:1"
         xml:space="preserve"><tspan
           style="font-style:normal;font-variant:normal;font-weight:normal;font-stretch:normal;font-size:13.78498077px;font-family:'Courier New';-inkscape-font-specification:'Courier New, Normal';font-variant-ligatures:normal;font-variant-caps:normal;font-variant-numeric:normal;font-feature-settings:normal;text-align:start;writing-mode:lr-tb;text-anchor:start;fill:#2c3e50;fill-opacity:1;stroke:#2c3e50;stroke-width:0.26458332;stroke-opacity:1"
           y="206.12836"
           x="14.432554"
           id="tspan2553"
           sodipodi:role="line">E=mc</tspan></text>
      <text
         xml:space="preserve"
         style="font-style:normal;font-weight:normal;font-size:10.58341897px;line-height:1.25;font-family:'Courier New';letter-spacing:0px;word-spacing:0px;fill:#2c3e50;fill-opacity:1;stroke:#2c3e50;stroke-width:0.26458332;stroke-opacity:1;-inkscape-font-specification:'Courier New, Normal';font-stretch:normal;font-variant:normal;text-anchor:start;text-align:start;writing-mode:lr;font-variant-ligatures:normal;font-variant-caps:normal;font-variant-numeric:normal;font-feature-settings:normal;"
         x="47.473946"
         y="202.92113"
         id="text2561"><tspan
           sodipodi:role="line"
           id="tspan2559"
           x="47.473946"
           y="202.92113"
           style="font-style:normal;font-variant:normal;font-weight:normal;font-stretch:normal;font-size:10.58341897px;font-family:'Courier New';-inkscape-font-specification:'Courier New, Normal';font-variant-ligatures:normal;font-variant-caps:normal;font-variant-numeric:normal;font-feature-settings:normal;text-align:start;writing-mode:lr;text-anchor:start;fill:#2c3e50;fill-opacity:1;stroke:#2c3e50;stroke-width:0.26458332;stroke-opacity:1;">2</tspan></text>
    </g>
    <path
       style="fill:none;fill-opacity:1;fill-rule:evenodd;stroke:#34495e;stroke-width:1.46499991;stroke-linejoin:round;stroke-miterlimit:4;stroke-dasharray:none;stroke-opacity:1"
       id="path2589"
       d="m 13.853453,185.34389 c 0.700043,0.0892 1.364865,0.34311 1.980143,0.68039 0.796953,0.50549 1.537558,1.11141 2.132757,1.84572 0.448723,0.60145 0.838051,1.24659 1.190502,1.90852 0,0 -0.260804,0.0128 -0.260804,0.0128 v 0 c -0.351988,-0.66037 -0.740166,-1.30422 -1.189152,-1.90357 -0.594915,-0.73126 -1.333907,-1.33525 -2.131221,-1.83568 -0.616489,-0.33281 -1.282572,-0.58795 -1.983391,-0.66679 0,0 0.261166,-0.0414 0.261166,-0.0414 z"
       inkscape:connector-curvature="0" />
    <path
       style="fill:none;fill-opacity:1;fill-rule:evenodd;stroke:#34495e;stroke-width:1.46499991;stroke-linejoin:round;stroke-miterlimit:4;stroke-dasharray:none;stroke-opacity:1"
       id="path2593"
       d="m 66.15962,226.14184 c -0.729072,-0.52569 -1.444773,-1.07103 -2.152951,-1.62472 -0.458208,-0.39841 -0.877708,-0.83796 -1.324131,-1.24879 0,0 0.261225,-0.0216 0.261225,-0.0216 v 0 c 0.443641,0.41197 0.862939,0.84991 1.320652,1.24693 0.7088,0.55385 1.424271,1.10085 2.157098,1.62235 0,0 -0.261893,0.0258 -0.261893,0.0258 z"
       inkscape:connector-curvature="0" />
    <path
       style="fill:none;fill-opacity:1;fill-rule:evenodd;stroke:#34495e;stroke-width:1.46499991;stroke-linejoin:round;stroke-miterlimit:4;stroke-dasharray:none;stroke-opacity:1"
       id="path2585"
       d="m 14.500173,224.46137 c 0.005,-1.50217 0.0067,-3.00435 0.0093,-4.50653 0.0054,-3.80103 0.0076,-7.60206 0.0093,-11.40309 0.0025,-4.64059 0.0014,-9.28117 -0.0016,-13.92176 0.0023,-2.58705 0.05455,-5.17891 -0.249272,-7.75215 -0.107954,-0.63486 -0.09478,-1.3329 -0.44755,-1.89218 0,0 0.262273,-0.0145 0.262273,-0.0145 v 0 c 0.345449,0.56783 0.336913,1.26326 0.439492,1.90381 0.291771,2.57519 0.230275,5.1674 0.224914,7.75508 -0.0029,4.64059 -0.004,9.28117 -0.0016,13.92175 0.0016,3.80104 0.0039,7.60207 0.0093,11.4031 0.0026,1.50217 0.0043,3.00436 0.0093,4.50653 0,0 -0.263851,0 -0.263851,0 z"
       inkscape:connector-curvature="0" />
    <path
       style="fill:none;fill-opacity:1;fill-rule:evenodd;stroke:#34495e;stroke-width:1.46499991;stroke-linejoin:round;stroke-miterlimit:4;stroke-dasharray:none;stroke-opacity:1"
       id="path2587"
       d="m 13.299223,185.02958 c -0.602832,1.01973 -1.328341,1.95328 -2.102856,2.84674 -0.418494,0.50138 -0.883592,0.95727 -1.2873966,1.47078 0,0 -0.259788,-0.0173 -0.259788,-0.0173 v 0 c 0.4045826,-0.51459 0.8720826,-0.96958 1.2917046,-1.47174 0.77527,-0.89001 1.501011,-1.82146 2.09563,-2.8439 0,0 0.262706,0.0155 0.262706,0.0155 z"
       inkscape:connector-curvature="0" />
    <path
       style="fill:none;fill-opacity:1;fill-rule:evenodd;stroke:#34495e;stroke-width:1.46499991;stroke-linejoin:round;stroke-miterlimit:4;stroke-dasharray:none;stroke-opacity:1"
       id="path2591"
       d="m 16.023916,225.26908 c 0.934581,0.43684 1.924649,0.66376 2.94047,0.80567 1.451406,0.15395 2.913306,0.15775 4.371208,0.16716 2.388555,0.005 4.777121,5.3e-4 7.165679,-10e-4 3.137495,-0.002 6.274987,-0.002 9.41248,-0.003 2.656853,-2e-4 5.313704,-5.3e-4 7.970554,-7.9e-4 1.448515,-8e-5 2.897029,-5.3e-4 4.345543,-8e-4 0.694656,-1.3e-4 1.389309,-2.6e-4 2.083965,-2.5e-4 0.568769,2e-5 1.137541,4e-5 1.706313,10e-6 0.720749,-10e-6 1.441501,1e-4 2.162252,9e-5 0.738254,-6e-5 1.476507,-10e-5 2.214764,-1.4e-4 0.542597,-3e-5 1.085193,-3e-5 1.62779,-3e-5 0.511435,-3e-5 1.022869,1.7e-4 1.534303,5e-5 0.50899,-4e-5 1.017977,3e-5 1.526966,2e-5 0,0 0.258392,0.0409 0.258392,0.0409 v 0 c -0.508883,-1e-5 -1.017767,6e-5 -1.526651,2e-5 -0.684099,-1e-5 -1.368197,-2e-5 -2.052296,5e-5 -0.542473,0 -1.084945,-1e-5 -1.627418,-3e-5 -0.566242,-3e-5 -1.132485,-1.2e-4 -1.698728,-1.4e-4 -0.720357,-1e-5 -1.440717,1e-4 -2.161077,9e-5 -0.741029,-4e-5 -1.482058,2e-5 -2.223087,1e-5 -0.693558,6e-5 -1.387115,-1.2e-4 -2.080673,-2.6e-4 -1.445276,-2.6e-4 -2.890552,-7.9e-4 -4.335825,-7.9e-4 -2.495955,-2.7e-4 -4.991909,-8e-4 -7.487862,-5.3e-4 -3.137693,2.6e-4 -6.275387,5.3e-4 -9.413078,0.003 -2.550872,0.002 -5.101754,0.007 -7.652623,0.003 -1.45897,-0.01 -2.922045,-0.0138 -4.374316,-0.17013 -1.018666,-0.14435 -2.011462,-0.37523 -2.948882,-0.81307 0,0 0.261837,-0.0291 0.261837,-0.0291 z"
       inkscape:connector-curvature="0" />
    <path
       style="fill:none;fill-opacity:1;fill-rule:evenodd;stroke:#34495e;stroke-width:1.46499991;stroke-linejoin:round;stroke-miterlimit:4;stroke-dasharray:none;stroke-opacity:1"
       id="path2595"
       d="m 65.652012,226.93102 c -0.576061,0.50793 -1.193334,0.9601 -1.830369,1.3874 -0.517567,0.40182 -1.099542,0.69421 -1.670997,1.00572 -0.301321,0.15555 -0.151725,0.0748 -0.448736,0.24228 0,0 -0.261231,-0.0277 -0.261231,-0.0277 v 0 c 0.296899,-0.16876 0.147185,-0.0879 0.449069,-0.24262 0.570214,-0.31336 1.156428,-0.59878 1.67254,-1.00321 0.636323,-0.42612 1.25549,-0.87401 1.827159,-1.38548 0,0 0.262565,0.0236 0.262565,0.0236 z"
       inkscape:connector-curvature="0" />
    <path
       style="fill:none;stroke:#8e44ad;stroke-width:1.55599999;stroke-linecap:butt;stroke-linejoin:miter;stroke-miterlimit:4;stroke-dasharray:none;stroke-opacity:1"
       d="m 16.970708,194.58529 c 0.808211,0.53359 1.96692,1.29857 2.195785,1.55638 0.228865,0.2578 0.228865,0.60913 0.363556,0.70026 0.134692,0.0911 0.569674,0.26345 0.6216,0.39073 0.05193,0.12727 0.05193,0.42632 0.170263,0.58325 0.118339,0.15693 0.354921,0.34287 0.557013,0.50297 0.202091,0.16011 0.429882,0.3426 0.483429,0.4922 0.05355,0.1496 0.05355,0.41487 0.188243,0.65575 0.134697,0.24089 0.414796,0.57375 0.612577,0.88917 0.197781,0.31541 0.337227,0.64494 0.501675,0.9567 0.164448,0.31175 0.358971,0.61776 0.492606,0.82957 0.133635,0.21182 0.211052,0.33699 0.313347,0.44683 0.102295,0.10984 0.2465,0.22574 0.377632,0.38294 0.131132,0.1572 0.275617,0.3863 0.339156,0.54252 0.06354,0.15622 0.07049,0.28636 0.137618,0.49569 0.06713,0.20934 0.235278,0.60972 0.41411,0.76818 0.178831,0.15845 0.458982,0.26942 0.790371,0.48073 0.331389,0.2113 0.755723,0.54748 1.015012,0.80625 0.259289,0.25877 0.402334,0.48543 0.533853,0.64047 0.13152,0.15504 0.275728,0.27095 0.406858,0.42814 0.131131,0.1572 0.271826,0.38029 0.468716,0.58562 0.19689,0.20533 0.479783,0.42945 0.675095,0.63754 0.195312,0.20809 0.337151,0.43283 0.407282,0.59083 0.07013,0.158 0.08742,0.3132 0.153738,0.40341 0.06632,0.0902 0.196787,0.19579 0.321814,0.34841 0.125028,0.15262 0.284301,0.40517 0.471902,0.54241 0.187601,0.13725 0.505688,0.26325 0.683403,0.41367 0.177716,0.15043 0.339566,0.40688 0.528044,0.54546 0.188479,0.13858 0.468917,0.24966 0.934865,0.56762 0.465949,0.31797 1.297329,0.97662 1.62249,1.18089 0.325161,0.20426 0.487813,0.20426 0.675902,0.31097 0.188088,0.10671 0.520648,0.37018 0.691115,0.45189 0.170467,0.0817 0.36573,0.0817 0.470165,0.18842 0.104434,0.1067 0.305269,0.42492 0.406894,0.47926 0.101625,0.0543 0.263086,0.0543 0.38441,0.10768 0.121323,0.0533 0.287623,0.1851 0.406527,0.22595 0.118904,0.0409 0.280373,0.0409 0.401693,0.0942 0.12132,0.0534 0.287618,0.18509 0.406523,0.22595 0.118905,0.0409 0.31416,0.0409 0.418597,0.14756 0.104437,0.10671 0.266289,0.36316 0.454766,0.50174 0.188477,0.13858 0.467219,0.24899 0.664598,0.35385 0.197379,0.10486 0.362047,0.23532 0.616481,0.27683 0.254435,0.0415 0.684341,0.0415 1.076065,0.12114 0.391724,0.0796 0.796793,0.2389 1.101225,0.36374 0.304432,0.12484 0.5078,0.21507 0.776879,0.34894 0.269079,0.13388 0.643666,0.33256 0.992508,0.41043 0.348842,0.0779 0.79734,0.0779 1.181376,0.18538 0.384035,0.10751 0.795685,0.32428 1.130816,0.4835 0.335132,0.15923 0.609438,0.26796 0.804764,0.37204 0.195325,0.10409 0.345366,0.22295 0.674467,0.3236 0.3291,0.10065 0.897521,0.21324 1.421525,0.42374 0.524005,0.2105 1.143039,0.57832 1.579109,0.71406 0.43607,0.13575 0.849611,0.13476 1.178171,0.13454 0.32856,-2.2e-4 0.57216,3.4e-4 0.732697,0.0126 0.160537,0.0123 0.243868,0.0382 0.386593,0.0917 0.142725,0.0535 0.364133,0.14214 0.593674,0.1801 0.22954,0.038 0.516437,0.038 0.777096,0.0913 0.260659,0.0534 0.551971,0.16875 0.743063,0.21778 0.191092,0.049 0.352558,0.049 0.47388,0.10236 0.121323,0.0533 0.285786,0.18364 0.607675,0.22523 0.321889,0.0416 0.8956,0.0416 1.282252,0.0949 0.386653,0.0533 0.665431,0.16378 0.862793,0.26864 0.197362,0.10485 0.361822,0.23514 0.683713,0.27673 0.32189,0.0416 0.860721,0.0416 1.399522,0.0416"
       id="path2625"
       inkscape:connector-curvature="0"
       inkscape:path-effect="#path-effect2627;#path-effect2629"
       inkscape:original-d="m 16.970708,194.58529 c 0.812217,0.53041 1.620434,1.064 2.42465,1.60077 0.0039,0.21026 0.0039,0.42369 0,0.6403 0.273406,0.1035 0.542811,0.21026 0.808216,0.32016 0.0039,0.21026 0.0039,0.42369 0,0.6403 0.13871,0.1035 0.273407,0.21026 0.404108,0.32014 0.273408,0.21028 0.542812,0.42371 0.808219,0.64031 0.0039,0.21027 0.0039,0.42371 0,0.64031 0.273404,0.31699 0.542811,0.63714 0.808214,0.96046 0.138709,0.31698 0.273408,0.63714 0.404107,0.96046 0.13871,0.21026 0.273408,0.42369 0.404112,0.6403 0.138695,0.21026 0.273404,0.4237 0.404108,0.64031 0.138709,0.1035 0.273403,0.21026 0.404106,0.32015 0.138709,0.21026 0.273408,0.4237 0.404107,0.64031 0.0039,0.1035 0.0039,0.21026 0,0.32015 0.13871,0.31698 0.273408,0.63714 0.404112,0.96046 0.273404,0.1035 0.542811,0.21026 0.808215,0.32014 0.408111,0.31699 0.812219,0.63715 1.212326,0.96046 0.138709,0.21028 0.273408,0.42371 0.404107,0.64031 0.13871,0.10362 0.273407,0.21027 0.404111,0.32015 0.138694,0.21028 0.273403,0.42371 0.404107,0.64031 0.273404,0.21027 0.542811,0.4237 0.808215,0.64031 0.13871,0.21026 0.273407,0.42369 0.404111,0.6403 0.0039,0.1035 0.0039,0.21026 0,0.32016 0.138694,0.10349 0.273403,0.21026 0.404107,0.32015 0.13871,0.21026 0.273404,0.4237 0.404108,0.64031 0.273408,0.10349 0.542811,0.21026 0.808218,0.32015 0.138694,0.21026 0.273403,0.4237 0.404107,0.64031 0.273404,0.10349 0.542811,0.21026 0.808215,0.32014 0.677514,0.53042 1.351029,1.06401 2.020544,1.60076 0.138694,-0.004 0.273403,-0.004 0.404107,0 0.273404,0.21028 0.542811,0.42371 0.808215,0.64031 0.13871,-0.004 0.273408,-0.004 0.404111,0 0.138694,0.21026 0.273403,0.42371 0.404107,0.64031 0.13871,-0.004 0.273404,-0.004 0.404108,0 0.138709,0.10349 0.273408,0.21027 0.404107,0.32015 0.13871,-0.004 0.273408,-0.004 0.404111,0 0.138694,0.1035 0.273405,0.21026 0.404107,0.32015 0.13871,-0.004 0.273404,-0.004 0.404108,0 0.13871,0.21026 0.273408,0.4237 0.404107,0.64031 0.273408,0.1035 0.542811,0.21026 0.808218,0.32015 0.13871,0.1035 0.273404,0.21026 0.404108,0.32016 0.408108,-0.004 0.812218,-0.004 1.212325,0 0.273404,0.10349 0.542811,0.21026 0.808215,0.32015 0.273409,0.1035 0.542811,0.21026 0.808218,0.32015 0.408109,0.21026 0.812216,0.4237 1.212327,0.64031 0.408107,-0.004 0.812215,-0.004 1.212321,0 0.408112,0.21026 0.812219,0.4237 1.212326,0.64029 0.273408,0.10362 0.542811,0.21028 0.808219,0.32017 0.138695,0.10349 0.273404,0.21026 0.404108,0.32014 0.542811,0.1035 1.081622,0.21027 1.616433,0.32015 0.542811,0.31699 1.081622,0.63715 1.616433,0.96046 0.273407,-0.004 0.542811,-0.004 0.808218,0 0.273404,-0.004 0.542811,-0.004 0.808215,0 0.13871,-0.004 0.273407,-0.004 0.404107,0 0.273407,0.10362 0.542812,0.21026 0.808218,0.32016 0.273404,-0.004 0.542812,-0.004 0.808215,0 0.273407,0.10361 0.542812,0.21027 0.808218,0.32015 0.13871,-0.004 0.273404,-0.004 0.404108,0 0.13871,0.1035 0.273408,0.21027 0.404107,0.32015 0.542812,-0.004 1.081622,-0.004 1.616433,0 0.273407,0.1035 0.542812,0.21026 0.808218,0.32016 0.13871,0.10361 0.273404,0.21026 0.404108,0.32015 0.542811,-0.004 1.081622,-0.004 1.616433,0" />
    <text
       xml:space="preserve"
       style="font-style:normal;font-weight:normal;font-size:40.36910629px;line-height:1.25;font-family:sans-serif;letter-spacing:0px;word-spacing:0px;fill:#8e44ad;fill-opacity:1;stroke:#8e44ad;stroke-width:1.00922763;stroke-opacity:1;"
       x="9.0544586"
       y="271.4111"
       id="text2654"
       transform="scale(0.95414093,1.0480632)"><tspan
         sodipodi:role="line"
         id="tspan2652"
         x="9.0544586"
         y="271.4111"
         style="font-style:normal;font-variant:normal;font-weight:normal;font-stretch:normal;font-size:40.36758804px;font-family:'Felix Titling';-inkscape-font-specification:'Felix Titling, Normal';font-variant-ligatures:normal;font-variant-caps:normal;font-variant-numeric:normal;font-feature-settings:normal;text-align:start;writing-mode:lr-tb;text-anchor:start;fill:#8e44ad;fill-opacity:1;stroke:#8e44ad;stroke-width:1.00922763;stroke-opacity:1;">UAM - IPM</tspan></text>
    <g
       transform="matrix(1.2029464,0,0,2.2299946,127.17882,-250.98672)"
       style="fill:#2c3e50;fill-opacity:1;stroke:#2c3e50;stroke-opacity:1"
       id="g2678">
      <g
         id="g2716"
         transform="translate(-5.7185978,5.220491)">
        <text
           id="text2672"
           y="206.12836"
           x="12.233095"
           style="font-style:normal;font-variant:normal;font-weight:normal;font-stretch:normal;font-size:12.06185818px;line-height:1.25;font-family:'Courier New';-inkscape-font-specification:'Courier New, Normal';font-variant-ligatures:normal;font-variant-caps:normal;font-variant-numeric:normal;font-feature-settings:normal;text-align:start;letter-spacing:0px;word-spacing:0px;writing-mode:lr-tb;text-anchor:start;fill:#2c3e50;fill-opacity:1;stroke:#2c3e50;stroke-width:0.26458332;stroke-opacity:1"
           xml:space="preserve"><tspan
             style="font-style:normal;font-variant:normal;font-weight:normal;font-stretch:normal;font-size:12.06185818px;font-family:'Courier New';-inkscape-font-specification:'Courier New, Normal';font-variant-ligatures:normal;font-variant-caps:normal;font-variant-numeric:normal;font-feature-settings:normal;text-align:start;writing-mode:lr-tb;text-anchor:start;fill:#2c3e50;fill-opacity:1;stroke:#2c3e50;stroke-width:0.26458332;stroke-opacity:1"
             y="206.12836"
             x="12.233095"
             id="tspan2670"
             sodipodi:role="line">c</tspan></text>
        <text
           xml:space="preserve"
           style="font-style:normal;font-variant:normal;font-weight:normal;font-stretch:normal;font-size:10.58341885px;line-height:1.25;font-family:'Courier New';-inkscape-font-specification:'Courier New, Normal';font-variant-ligatures:normal;font-variant-caps:normal;font-variant-numeric:normal;font-feature-settings:normal;text-align:start;letter-spacing:0px;word-spacing:0px;writing-mode:lr-tb;text-anchor:start;fill:#2c3e50;fill-opacity:1;stroke:#2c3e50;stroke-width:0.26458332;stroke-opacity:1"
           x="55.941872"
           y="201.61603"
           id="text2676"><tspan
             sodipodi:role="line"
             id="tspan2674"
             x="55.941872"
             y="201.61603"
             style="font-style:normal;font-variant:normal;font-weight:normal;font-stretch:normal;font-size:10.58341885px;font-family:'Courier New';-inkscape-font-specification:'Courier New, Normal';font-variant-ligatures:normal;font-variant-caps:normal;font-variant-numeric:normal;font-feature-settings:normal;text-align:start;writing-mode:lr-tb;text-anchor:start;fill:#2c3e50;fill-opacity:1;stroke:#2c3e50;stroke-width:0.26458332;stroke-opacity:1">2</tspan></text>
        <text
           id="text2690"
           y="201.67535"
           x="37.026512"
           style="font-style:normal;font-variant:normal;font-weight:normal;font-stretch:normal;font-size:10.58341885px;line-height:1.25;font-family:'Courier New';-inkscape-font-specification:'Courier New, Normal';font-variant-ligatures:normal;font-variant-caps:normal;font-variant-numeric:normal;font-feature-settings:normal;text-align:start;letter-spacing:0px;word-spacing:0px;writing-mode:lr-tb;text-anchor:start;fill:#2c3e50;fill-opacity:1;stroke:#2c3e50;stroke-width:0.26458332;stroke-opacity:1"
           xml:space="preserve"><tspan
             style="font-style:normal;font-variant:normal;font-weight:normal;font-stretch:normal;font-size:10.58341885px;font-family:'Courier New';-inkscape-font-specification:'Courier New, Normal';font-variant-ligatures:normal;font-variant-caps:normal;font-variant-numeric:normal;font-feature-settings:normal;text-align:start;writing-mode:lr-tb;text-anchor:start;fill:#2c3e50;fill-opacity:1;stroke:#2c3e50;stroke-width:0.26458332;stroke-opacity:1"
             y="201.67535"
             x="37.026512"
             id="tspan2688"
             sodipodi:role="line">2</tspan></text>
        <text
           xml:space="preserve"
           style="font-style:normal;font-variant:normal;font-weight:normal;font-stretch:normal;font-size:10.58341885px;line-height:1.25;font-family:'Courier New';-inkscape-font-specification:'Courier New, Normal';font-variant-ligatures:normal;font-variant-caps:normal;font-variant-numeric:normal;font-feature-settings:normal;text-align:start;letter-spacing:0px;word-spacing:0px;writing-mode:lr-tb;text-anchor:start;fill:#2c3e50;fill-opacity:1;stroke:#2c3e50;stroke-width:0.26458332;stroke-opacity:1"
           x="18.331099"
           y="201.91263"
           id="text2694"><tspan
             sodipodi:role="line"
             id="tspan2692"
             x="18.331099"
             y="201.91263"
             style="font-style:normal;font-variant:normal;font-weight:normal;font-stretch:normal;font-size:10.58341885px;font-family:'Courier New';-inkscape-font-specification:'Courier New, Normal';font-variant-ligatures:normal;font-variant-caps:normal;font-variant-numeric:normal;font-feature-settings:normal;text-align:start;writing-mode:lr-tb;text-anchor:start;fill:#2c3e50;fill-opacity:1;stroke:#2c3e50;stroke-width:0.26458332;stroke-opacity:1">2</tspan></text>
        <text
           xml:space="preserve"
           style="font-style:normal;font-variant:normal;font-weight:normal;font-stretch:normal;font-size:12.06185818px;line-height:1.25;font-family:'Courier New';-inkscape-font-specification:'Courier New, Normal';font-variant-ligatures:normal;font-variant-caps:normal;font-variant-numeric:normal;font-feature-settings:normal;text-align:start;letter-spacing:0px;word-spacing:0px;writing-mode:lr-tb;text-anchor:start;fill:#2c3e50;fill-opacity:1;stroke:#2c3e50;stroke-width:0.26458332;stroke-opacity:1"
           x="24.4401"
           y="205.89107"
           id="text2698"><tspan
             sodipodi:role="line"
             id="tspan2696"
             x="24.4401"
             y="205.89107"
             style="font-style:normal;font-variant:normal;font-weight:normal;font-stretch:normal;font-size:12.06185818px;font-family:'Courier New';-inkscape-font-specification:'Courier New, Normal';font-variant-ligatures:normal;font-variant-caps:normal;font-variant-numeric:normal;font-feature-settings:normal;text-align:start;writing-mode:lr-tb;text-anchor:start;fill:#2c3e50;fill-opacity:1;stroke:#2c3e50;stroke-width:0.26458332;stroke-opacity:1">=a</tspan></text>
        <text
           id="text2702"
           y="205.95039"
           x="42.365704"
           style="font-style:normal;font-variant:normal;font-weight:normal;font-stretch:normal;font-size:12.06185818px;line-height:1.25;font-family:'Courier New';-inkscape-font-specification:'Courier New, Normal';font-variant-ligatures:normal;font-variant-caps:normal;font-variant-numeric:normal;font-feature-settings:normal;text-align:start;letter-spacing:0px;word-spacing:0px;writing-mode:lr-tb;text-anchor:start;fill:#2c3e50;fill-opacity:1;stroke:#2c3e50;stroke-width:0.26458332;stroke-opacity:1"
           xml:space="preserve"><tspan
             style="font-style:normal;font-variant:normal;font-weight:normal;font-stretch:normal;font-size:12.06185818px;font-family:'Courier New';-inkscape-font-specification:'Courier New, Normal';font-variant-ligatures:normal;font-variant-caps:normal;font-variant-numeric:normal;font-feature-settings:normal;text-align:start;writing-mode:lr-tb;text-anchor:start;fill:#2c3e50;fill-opacity:1;stroke:#2c3e50;stroke-width:0.26458332;stroke-opacity:1"
             y="205.95039"
             x="42.365704"
             id="tspan2700"
             sodipodi:role="line">+b</tspan></text>
      </g>
    </g>
  </g>
</svg>
