<!DOCTYPE svg PUBLIC "-//W3C//DTD SVG 20010904//EN" "http://www.w3.org/TR/2001/REC-SVG-20010904/DTD/svg10.dtd">
<svg version="1.0" xmlns="http://www.w3.org/2000/svg" width="200px" height="200px" viewBox="0 0 2000 2000" preserveAspectRatio="xMidYMid meet">
<g id="layerbg1" fill="#5c95be" stroke="none">
 <path d="M1704 966 c-4 -10 -2 -22 4 -28 8 -8 13 -7 18 6 4 10 2 22 -4 28 -8 8 -13 7 -18 -6z"/>
 </g>
<g id="layerbg2" fill="#8cc2e6" stroke="none">
 <path d="M727 1060 c-15 -5 -63 -24 -105 -43 -42 -19 -90 -40 -105 -46 -16 -6 -27 -17 -24 -24 6 -18 53 -9 111 20 28 14 78 36 111 47 34 13 60 28 60 36 0 17 -13 20 -48 10z"/>
 <path d="M815 1060 c-10 -16 1 -24 73 -54 34 -14 89 -37 122 -51 57 -25 80 -26 80 -4 0 5 -12 15 -27 21 -16 6 -66 28 -113 49 -108 47 -127 53 -135 39z"/>
 <path d="M1315 1044 c-33 -14 -87 -37 -120 -51 -71 -30 -83 -39 -68 -54 8 -8 27 -4 69 14 33 14 91 38 129 54 39 17 70 36 70 43 0 22 -17 21 -80 -6z"/>
 <path d="M1434 1059 c-8 -13 22 -39 44 -39 8 0 52 -18 99 -40 47 -22 96 -41 110 -42 36 -4 40 19 6 33 -15 6 -66 28 -113 49 -102 45 -136 54 -146 39z"/>
 <path d="M287 1024 c-15 -16 -4 -26 56 -54 72 -34 112 -42 112 -21 0 8 -30 27 -70 43 -38 16 -75 31 -81 34 -5 2 -13 1 -17 -2z"/>
 </g>
<g id="layerbg3" fill="#2c3e50" stroke="none">
 <path d="M890 1784 c-325 -63 -565 -277 -652 -580 -32 -112 -32 -296 0 -407 77 -270 289 -482 559 -559 111 -32 295 -32 406 0 270 77 484 291 558 558 31 111 31 296 0 409 -73 264 -286 479 -551 555 -73 21 -262 35 -320 24z m339 -109 c99 -34 185 -86 265 -163 224 -217 279 -542 139 -832 -38 -79 -59 -108 -132 -181 -74 -73 -102 -94 -181 -132 -124 -59 -181 -72 -320 -72 -139 0 -196 13 -320 72 -79 38 -107 59 -181 132 -73 74 -94 102 -132 181 -61 128 -72 180 -71 335 0 113 4 141 27 211 78 236 288 421 538 474 24 5 98 8 164 6 99 -3 135 -8 204 -31z"/>
 </g>
<g id="layerbg4" fill="#3498db" stroke="none">
 <path d="M861 1720 c-90 -19 -173 -53 -243 -99 -196 -129 -325 -330 -344 -541 l-7 -68 50 -26 c28 -14 53 -22 57 -19 3 3 26 -2 52 -12 40 -15 51 -16 85 -5 22 7 42 10 45 7 7 -7 80 28 107 51 9 8 20 12 24 9 3 -4 14 0 24 9 29 26 189 20 189 -7 0 -11 96 -60 103 -52 3 3 28 -3 55 -12 47 -17 51 -17 96 0 25 10 49 15 52 12 7 -7 75 26 116 56 36 26 165 29 179 4 6 -9 17 -13 29 -10 11 3 20 0 20 -6 0 -16 78 -52 121 -55 56 -4 63 9 56 108 -12 170 -88 327 -223 458 -146 141 -281 198 -479 204 -66 2 -140 -1 -164 -6z"/>
 </g>
<g id="layerbg5" fill="#ecf0f1" stroke="none">
 <path d="M0 1000 l0 -1000 1000 0 1000 0 0 1000 0 1000 -1000 0 -1000 0 0 -1000z m1210 740 c261 -75 459 -275 531 -535 31 -113 31 -298 0 -409 -73 -264 -272 -462 -538 -538 -111 -32 -295 -32 -406 0 -266 76 -463 273 -539 539 -32 111 -32 295 0 407 85 298 310 497 632 560 58 11 247 -3 320 -24z"/>
 <path d="M715 1036 c-33 -13 -85 -36 -115 -51 -80 -40 -163 -40 -254 3 -79 37 -82 34 -72 -61 11 -99 25 -146 73 -247 40 -82 58 -107 142 -191 84 -84 109 -102 191 -142 124 -59 181 -72 320 -72 139 0 196 13 320 72 82 40 107 58 191 142 83 83 103 109 142 191 43 89 85 240 72 260 -3 5 -20 12 -38 15 -17 4 -57 20 -87 35 -30 15 -84 38 -119 50 -74 26 -75 26 -224 -42 -109 -49 -173 -55 -250 -22 -228 97 -205 92 -292 60z"/>
 </g>
<g id="layer101" fill="#5c95be" stroke="none">
 <path d="M0 1000 c0 -7 3 -10 7 -7 3 4 3 10 0 14 -4 3 -7 0 -7 -7z"/>
 <path d="M1711 954 c0 -11 3 -14 6 -6 3 7 2 16 -1 19 -3 4 -6 -2 -5 -13z"/>
 </g>
<g id="layer102" fill="#8cc2e6" stroke="none">
 <path d="M733 1053 c-13 -2 -23 -8 -23 -12 0 -4 -10 -8 -22 -8 -13 -1 -24 -7 -26 -13 -2 -5 -9 -7 -14 -4 -6 4 -8 2 -5 -4 8 -12 47 -4 47 9 0 5 3 8 8 7 16 -5 72 12 72 22 0 5 -3 9 -7 9 -5 -1 -18 -4 -30 -6z"/>
 <path d="M820 1052 c0 -12 86 -43 94 -34 3 3 6 0 6 -7 0 -7 5 -9 10 -6 6 3 10 1 10 -5 0 -6 5 -8 10 -5 6 3 10 1 10 -5 0 -6 5 -8 10 -5 6 3 10 1 10 -5 0 -6 5 -8 10 -5 6 3 10 2 10 -3 0 -6 11 -13 24 -16 13 -3 31 -9 40 -12 9 -3 16 -1 16 4 0 6 -10 14 -22 17 -13 4 -61 24 -108 45 -102 46 -130 55 -130 42z"/>
 <path d="M1343 1048 c-18 -6 -33 -15 -33 -20 0 -5 -5 -6 -12 -2 -6 4 -8 3 -4 -4 7 -12 96 14 96 29 0 11 -5 10 -47 -3z"/>
 <path d="M1440 1050 c0 -10 51 -25 66 -20 4 1 10 -3 14 -10 4 -6 17 -12 28 -13 12 -1 22 -5 22 -10 0 -4 5 -5 10 -2 6 3 10 1 10 -5 0 -6 5 -8 10 -5 6 3 10 1 10 -5 0 -6 5 -8 10 -5 6 3 10 1 10 -5 0 -6 4 -9 9 -6 5 4 11 2 13 -2 5 -13 58 -24 58 -12 0 5 -12 13 -27 16 -15 4 -63 24 -108 44 -91 43 -135 55 -135 40z"/>
 <path d="M290 1010 c0 -6 5 -8 10 -5 6 3 10 1 10 -5 0 -6 5 -8 10 -5 6 3 10 1 10 -5 0 -6 5 -8 10 -5 6 3 10 1 10 -5 0 -6 5 -8 10 -5 6 3 10 2 10 -3 0 -6 11 -13 24 -16 13 -3 31 -9 40 -12 9 -3 16 -2 16 3 0 5 -30 21 -67 37 -38 15 -74 29 -80 33 -7 3 -13 0 -13 -7z"/>
 <path d="M1275 1010 c3 -5 8 -10 11 -10 3 0 2 5 -1 10 -3 6 -8 10 -11 10 -3 0 -2 -4 1 -10z"/>
 <path d="M625 1000 c3 -5 8 -10 11 -10 3 0 2 5 -1 10 -3 6 -8 10 -11 10 -3 0 -2 -4 1 -10z"/>
 <path d="M1255 1000 c3 -5 8 -10 11 -10 3 0 2 5 -1 10 -3 6 -8 10 -11 10 -3 0 -2 -4 1 -10z"/>
 <path d="M605 990 c3 -5 8 -10 11 -10 3 0 2 5 -1 10 -3 6 -8 10 -11 10 -3 0 -2 -4 1 -10z"/>
 <path d="M1235 990 c3 -5 8 -10 11 -10 3 0 2 5 -1 10 -3 6 -8 10 -11 10 -3 0 -2 -4 1 -10z"/>
 <path d="M585 980 c3 -5 8 -10 11 -10 3 0 2 5 -1 10 -3 6 -8 10 -11 10 -3 0 -2 -4 1 -10z"/>
 <path d="M1173 973 c-24 -8 -43 -19 -43 -25 0 -6 7 -7 16 -4 9 3 27 9 40 12 13 3 24 10 24 16 0 5 5 6 12 2 7 -4 8 -3 4 4 -4 7 -8 12 -9 11 -1 0 -21 -7 -44 -16z"/>
 <path d="M533 969 c-40 -12 -45 -32 -5 -23 15 4 29 11 30 16 2 4 9 5 14 2 7 -4 8 -2 4 4 -4 7 -8 12 -9 11 -1 0 -17 -5 -34 -10z"/>
 </g>
<g id="layer103" fill="#2c3e50" stroke="none">
 <path d="M890 1774 c-324 -63 -556 -269 -642 -570 -32 -112 -32 -296 0 -407 76 -268 281 -473 549 -549 111 -32 295 -32 406 0 269 77 475 282 548 548 31 111 31 296 0 409 -72 262 -279 470 -541 545 -73 21 -262 35 -320 24z m339 -89 c101 -34 185 -87 270 -168 230 -223 285 -544 144 -837 -39 -80 -59 -108 -137 -186 -79 -78 -105 -98 -186 -137 -124 -59 -181 -72 -320 -72 -139 0 -196 13 -320 72 -81 39 -107 59 -186 137 -78 79 -98 105 -137 186 -61 128 -72 180 -71 335 0 113 4 141 27 211 79 239 297 431 548 484 24 5 98 8 164 6 99 -3 135 -8 204 -31z"/>
 </g>
<g id="layer104" fill="#3498db" stroke="none">
 <path d="M861 1710 c-251 -53 -472 -248 -546 -482 -28 -87 -45 -226 -27 -215 14 9 43 -3 36 -14 -3 -5 3 -6 12 -2 12 4 15 3 10 -5 -5 -8 -1 -10 10 -5 13 5 15 3 9 -7 -6 -9 -4 -11 4 -5 7 4 33 -1 58 -10 39 -15 51 -16 84 -5 22 7 42 10 45 7 9 -9 104 41 104 54 0 6 9 9 20 6 12 -3 23 1 28 10 6 10 28 15 68 17 62 2 148 -19 138 -35 -3 -5 3 -6 12 -2 12 4 15 3 10 -5 -5 -8 -1 -10 10 -5 12 4 15 3 10 -5 -5 -8 -1 -10 10 -5 12 4 15 3 10 -5 -5 -8 -1 -10 10 -5 13 5 15 3 9 -7 -5 -9 -4 -11 4 -6 6 4 33 0 60 -10 46 -16 50 -16 95 1 25 10 49 15 52 12 8 -8 104 41 104 52 0 12 53 24 105 25 55 2 107 -12 99 -26 -4 -7 -2 -8 5 -4 15 9 53 -3 46 -15 -3 -5 2 -6 11 -2 12 4 15 3 10 -5 -5 -8 -1 -10 10 -5 12 4 15 3 10 -5 -5 -8 -1 -10 10 -5 12 4 15 3 10 -5 -5 -8 -1 -10 10 -5 10 3 15 2 12 -3 -4 -5 10 -9 30 -9 l37 0 -1 87 c-3 269 -212 541 -485 633 -69 23 -105 28 -204 31 -66 2 -140 -1 -164 -6z"/>
 </g>
<g id="layer105" fill="#ecf0f1" stroke="none">
 <path d="M0 1000 l0 -1000 1000 0 1000 0 0 1000 0 1000 -1000 0 -1000 0 0 -1000z m1210 750 c262 -75 469 -283 541 -545 31 -113 31 -298 0 -409 -73 -266 -279 -471 -548 -548 -111 -32 -295 -32 -406 0 -268 76 -473 281 -549 549 -32 111 -32 295 0 407 86 301 318 507 642 570 58 11 247 -3 320 -24z"/>
 <path d="M715 1026 c-33 -13 -85 -36 -115 -51 -80 -41 -163 -40 -255 3 l-68 32 7 -71 c10 -106 23 -154 73 -259 39 -81 59 -107 137 -186 79 -78 105 -98 186 -137 124 -59 181 -72 320 -72 139 0 196 13 320 72 81 39 107 59 186 137 78 78 98 106 137 186 36 75 77 210 77 254 0 2 -15 8 -32 11 -18 4 -58 20 -88 35 -30 15 -84 38 -119 50 -74 26 -75 26 -224 -42 -109 -49 -173 -55 -250 -22 -228 97 -205 92 -292 60z"/>
 </g>

</svg>