<?xml version="1.0" encoding="UTF-8" standalone="no"?>
<!-- Created with Inkscape (http://www.inkscape.org/) -->

<svg
   xmlns:dc="http://purl.org/dc/elements/1.1/"
   xmlns:cc="http://creativecommons.org/ns#"
   xmlns:rdf="http://www.w3.org/1999/02/22-rdf-syntax-ns#"
   xmlns:svg="http://www.w3.org/2000/svg"
   xmlns="http://www.w3.org/2000/svg"
   xmlns:sodipodi="http://sodipodi.sourceforge.net/DTD/sodipodi-0.dtd"
   xmlns:inkscape="http://www.inkscape.org/namespaces/inkscape"
   width="200"
   height="200"
   viewBox="0 0 52.916665 52.916668"
   version="1.1"
   id="svg8"
   inkscape:version="0.92.3 (2405546, 2018-03-11)"
   sodipodi:docname="icono.svg">
  <defs
     id="defs2" />
  <sodipodi:namedview
     id="base"
     pagecolor="#ffffff"
     bordercolor="#666666"
     borderopacity="1.0"
     inkscape:pageopacity="0.0"
     inkscape:pageshadow="2"
     inkscape:zoom="1.979899"
     inkscape:cx="54.493244"
     inkscape:cy="120.84817"
     inkscape:document-units="mm"
     inkscape:current-layer="layer1"
     showgrid="false"
     units="px"
     inkscape:window-width="1366"
     inkscape:window-height="745"
     inkscape:window-x="-8"
     inkscape:window-y="-8"
     inkscape:window-maximized="1"
     inkscape:snap-global="false">
    <inkscape:grid
       type="xygrid"
       id="grid9107" />
  </sodipodi:namedview>
  <metadata
     id="metadata5">
    <rdf:RDF>
      <cc:Work
         rdf:about="">
        <dc:format>image/svg+xml</dc:format>
        <dc:type
           rdf:resource="http://purl.org/dc/dcmitype/StillImage" />
        <dc:title />
      </cc:Work>
    </rdf:RDF>
  </metadata>
  <g
     inkscape:label="Capa 1"
     inkscape:groupmode="layer"
     id="layer1"
     transform="translate(0,-244.08332)">
    <rect
       style="fill:#bdc3c7;fill-opacity:1;fill-rule:evenodd;stroke:none;stroke-width:2.16031361;stroke-linejoin:miter;stroke-miterlimit:4;stroke-dasharray:none;stroke-dashoffset:0;stroke-opacity:1"
       id="rect815"
       width="52.916668"
       height="52.916668"
       x="2.5687237e-008"
       y="244.08334" />
    <rect
       style="opacity:1;vector-effect:none;fill:#d35400;fill-opacity:1;fill-rule:evenodd;stroke:none;stroke-width:0.34635121;stroke-linecap:butt;stroke-linejoin:miter;stroke-miterlimit:4;stroke-dasharray:none;stroke-dashoffset:0;stroke-opacity:1"
       id="rect9115"
       width="2.4739373"
       height="19.791498"
       x="26.458162"
       y="265.58502"
       ry="0" />
    <rect
       style="opacity:1;vector-effect:none;fill:#c23616;fill-opacity:1;fill-rule:evenodd;stroke:none;stroke-width:0.34635121;stroke-linecap:butt;stroke-linejoin:miter;stroke-miterlimit:4;stroke-dasharray:none;stroke-dashoffset:0;stroke-opacity:1"
       id="rect9117"
       width="1.2369686"
       height="19.791498"
       x="25.221193"
       y="265.58502" />
    <path
       style="opacity:1;vector-effect:none;fill:#27ae60;fill-opacity:1;fill-rule:evenodd;stroke:none;stroke-width:0.3447136;stroke-linecap:butt;stroke-linejoin:miter;stroke-miterlimit:4;stroke-dasharray:none;stroke-dashoffset:0;stroke-opacity:1"
       id="path9105"
       sodipodi:type="arc"
       sodipodi:cx="26.458164"
       sodipodi:cy="291.64981"
       sodipodi:rx="18.554529"
       sodipodi:ry="7.0683918"
       sodipodi:start="3.509641"
       sodipodi:end="5.9144043"
       sodipodi:open="true"
       d="m 9.1462074,289.10664 a 18.554529,7.0683918 0 0 1 17.3051596,-4.52522 18.554529,7.0683918 0 0 1 17.313858,4.52039" />
    <path
       sodipodi:nodetypes="scscscscss"
       inkscape:connector-curvature="0"
       id="path9163"
       d="m 41.770066,263.0669 c 0.822721,8.73353 -9.233086,6.27319 -9.233086,6.27319 0,0 -2.875164,3.62257 -6.803328,3.62257 -3.928164,0 -8.040296,-4.85953 -8.040296,-4.85953 0,0 -6.184843,1.23696 -6.184843,-5.74307 0,-6.62662 7.421812,-6.62662 7.421812,-6.62662 0,0 -2.473937,-3.71091 6.803327,-3.97597 8.041383,-0.22975 8.040297,5.21294 8.040297,5.21294 0,0 2.78318,-3.05127 4.32939,-2.06983 1.546211,0.98143 3.092422,2.06983 3.666727,8.16632 z"
       style="opacity:1;vector-effect:none;fill:#16a085;fill-opacity:1;fill-rule:evenodd;stroke:none;stroke-width:0.3832607;stroke-linecap:butt;stroke-linejoin:miter;stroke-miterlimit:4;stroke-dasharray:none;stroke-dashoffset:0;stroke-opacity:1" />
    <path
       style="opacity:1;vector-effect:none;fill:#2ecc71;fill-opacity:1;fill-rule:evenodd;stroke:none;stroke-width:0.3832607;stroke-linecap:butt;stroke-linejoin:miter;stroke-miterlimit:4;stroke-dasharray:none;stroke-dashoffset:0;stroke-opacity:1"
       d="m 43.113061,263.02272 c 0.822721,8.73353 -9.233086,6.27319 -9.233086,6.27319 0,0 -2.875164,3.62257 -6.803328,3.62257 -3.928164,0 -8.040296,-4.85953 -8.040296,-4.85953 0,0 -6.184843,1.23696 -6.184843,-5.74307 0,-6.62662 7.421812,-6.62662 7.421812,-6.62662 0,0 -2.473937,-3.71091 6.803327,-3.97597 8.041383,-0.22976 8.040297,5.21294 8.040297,5.21294 0,0 2.78318,-3.05127 4.32939,-2.06983 1.546211,0.98143 3.092422,2.06983 3.666727,8.16632 z"
       id="path9119"
       inkscape:connector-curvature="0"
       sodipodi:nodetypes="scscscscss" />
    <g
       id="g9137"
       transform="matrix(0.93503142,0,0,0.93503142,2.718412,16.693254)">
      <path
         sodipodi:nodetypes="cscscsc"
         inkscape:connector-curvature="0"
         id="path9122"
         d="m 23.733078,257.73055 c 3e-6,1.14708 -0.929882,2.49238 -2.076955,2.49238 -1.147073,0 -2.07696,-1.3453 -2.076957,-2.49238 0.26944,-1.22068 0.711642,-1.19948 1.206957,-1.11922 0.460259,0.0746 0.801156,0.28517 0.837217,0.50715 0.145412,-0.50274 0.600489,-0.58518 1.051476,-0.59003 0.439939,-0.005 0.912698,0.0292 1.058262,1.2021 z"
         style="opacity:1;vector-effect:none;fill:#e74c3c;fill-opacity:1;fill-rule:evenodd;stroke:none;stroke-width:0.26458332;stroke-linecap:butt;stroke-linejoin:miter;stroke-miterlimit:4;stroke-dasharray:none;stroke-dashoffset:0;stroke-opacity:1" />
      <path
         sodipodi:nodetypes="csc"
         inkscape:connector-curvature="0"
         id="path9125"
         d="m 21.619034,257.10747 c 0,0 -0.185018,-0.93593 -0.04171,-1.22391 0.197232,-0.39639 1.043115,-0.4219 1.043115,-0.4219"
         style="fill:none;stroke:#27ae60;stroke-width:0.26458332;stroke-linecap:butt;stroke-linejoin:miter;stroke-miterlimit:4;stroke-dasharray:none;stroke-opacity:1" />
    </g>
    <g
       id="g9133"
       transform="matrix(0.93503142,0,0,0.93503142,7.2189057,27.38393)">
      <path
         style="opacity:1;vector-effect:none;fill:#e74c3c;fill-opacity:1;fill-rule:evenodd;stroke:none;stroke-width:0.26458332;stroke-linecap:butt;stroke-linejoin:miter;stroke-miterlimit:4;stroke-dasharray:none;stroke-dashoffset:0;stroke-opacity:1"
         d="m 23.733078,257.73055 c 3e-6,1.14708 -0.929882,2.49238 -2.076955,2.49238 -1.147073,0 -2.07696,-1.3453 -2.076957,-2.49238 0.26944,-1.22068 0.711642,-1.19948 1.206957,-1.11922 0.460259,0.0746 0.801156,0.28517 0.837217,0.50715 0.145412,-0.50274 0.600489,-0.58518 1.051476,-0.59003 0.439939,-0.005 0.912698,0.0292 1.058262,1.2021 z"
         id="path9127"
         inkscape:connector-curvature="0"
         sodipodi:nodetypes="cscscsc" />
      <path
         style="fill:none;stroke:#27ae60;stroke-width:0.26458332;stroke-linecap:butt;stroke-linejoin:miter;stroke-miterlimit:4;stroke-dasharray:none;stroke-opacity:1"
         d="m 21.619034,257.10747 c 0,0 -0.185018,-0.93593 -0.04171,-1.22391 0.197232,-0.39639 1.043115,-0.4219 1.043115,-0.4219"
         id="path9129"
         inkscape:connector-curvature="0"
         sodipodi:nodetypes="csc" />
    </g>
    <g
       id="g9143"
       transform="matrix(0.93503142,0,0,0.93503142,11.402625,22.378602)">
      <path
         style="opacity:1;vector-effect:none;fill:#e74c3c;fill-opacity:1;fill-rule:evenodd;stroke:none;stroke-width:0.26458332;stroke-linecap:butt;stroke-linejoin:miter;stroke-miterlimit:4;stroke-dasharray:none;stroke-dashoffset:0;stroke-opacity:1"
         d="m 23.733078,257.73055 c 3e-6,1.14708 -0.929882,2.49238 -2.076955,2.49238 -1.147073,0 -2.07696,-1.3453 -2.076957,-2.49238 0.26944,-1.22068 0.711642,-1.19948 1.206957,-1.11922 0.460259,0.0746 0.801156,0.28517 0.837217,0.50715 0.145412,-0.50274 0.600489,-0.58518 1.051476,-0.59003 0.439939,-0.005 0.912698,0.0292 1.058262,1.2021 z"
         id="path9139"
         inkscape:connector-curvature="0"
         sodipodi:nodetypes="cscscsc" />
      <path
         style="fill:none;stroke:#27ae60;stroke-width:0.26458332;stroke-linecap:butt;stroke-linejoin:miter;stroke-miterlimit:4;stroke-dasharray:none;stroke-opacity:1"
         d="m 21.619034,257.10747 c 0,0 -0.185018,-0.93593 -0.04171,-1.22391 0.197232,-0.39639 1.043115,-0.4219 1.043115,-0.4219"
         id="path9141"
         inkscape:connector-curvature="0"
         sodipodi:nodetypes="csc" />
    </g>
    <g
       transform="matrix(0.93503142,0,0,0.93503142,9.3409054,15.506203)"
       id="g9149">
      <path
         sodipodi:nodetypes="cscscsc"
         inkscape:connector-curvature="0"
         id="path9145"
         d="m 23.733078,257.73055 c 3e-6,1.14708 -0.929882,2.49238 -2.076955,2.49238 -1.147073,0 -2.07696,-1.3453 -2.076957,-2.49238 0.26944,-1.22068 0.711642,-1.19948 1.206957,-1.11922 0.460259,0.0746 0.801156,0.28517 0.837217,0.50715 0.145412,-0.50274 0.600489,-0.58518 1.051476,-0.59003 0.439939,-0.005 0.912698,0.0292 1.058262,1.2021 z"
         style="opacity:1;vector-effect:none;fill:#e74c3c;fill-opacity:1;fill-rule:evenodd;stroke:none;stroke-width:0.26458332;stroke-linecap:butt;stroke-linejoin:miter;stroke-miterlimit:4;stroke-dasharray:none;stroke-dashoffset:0;stroke-opacity:1" />
      <path
         sodipodi:nodetypes="csc"
         inkscape:connector-curvature="0"
         id="path9147"
         d="m 21.619034,257.10747 c 0,0 -0.185018,-0.93593 -0.04171,-1.22391 0.197232,-0.39639 1.043115,-0.4219 1.043115,-0.4219"
         style="fill:none;stroke:#27ae60;stroke-width:0.26458332;stroke-linecap:butt;stroke-linejoin:miter;stroke-miterlimit:4;stroke-dasharray:none;stroke-opacity:1" />
    </g>
    <g
       id="g9155"
       transform="matrix(0.93503142,0,0,0.93503142,-0.53035809,23.128318)">
      <path
         style="opacity:1;vector-effect:none;fill:#e74c3c;fill-opacity:1;fill-rule:evenodd;stroke:none;stroke-width:0.26458332;stroke-linecap:butt;stroke-linejoin:miter;stroke-miterlimit:4;stroke-dasharray:none;stroke-dashoffset:0;stroke-opacity:1"
         d="m 23.733078,257.73055 c 3e-6,1.14708 -0.929882,2.49238 -2.076955,2.49238 -1.147073,0 -2.07696,-1.3453 -2.076957,-2.49238 0.26944,-1.22068 0.711642,-1.19948 1.206957,-1.11922 0.460259,0.0746 0.801156,0.28517 0.837217,0.50715 0.145412,-0.50274 0.600489,-0.58518 1.051476,-0.59003 0.439939,-0.005 0.912698,0.0292 1.058262,1.2021 z"
         id="path9151"
         inkscape:connector-curvature="0"
         sodipodi:nodetypes="cscscsc" />
      <path
         style="fill:none;stroke:#27ae60;stroke-width:0.26458332;stroke-linecap:butt;stroke-linejoin:miter;stroke-miterlimit:4;stroke-dasharray:none;stroke-opacity:1"
         d="m 21.619034,257.10747 c 0,0 -0.185018,-0.93593 -0.04171,-1.22391 0.197232,-0.39639 1.043115,-0.4219 1.043115,-0.4219"
         id="path9153"
         inkscape:connector-curvature="0"
         sodipodi:nodetypes="csc" />
    </g>
    <g
       transform="matrix(0.93503142,0,0,0.93503142,18.15007,21.37898)"
       id="g9161">
      <path
         sodipodi:nodetypes="cscscsc"
         inkscape:connector-curvature="0"
         id="path9157"
         d="m 23.733078,257.73055 c 3e-6,1.14708 -0.929882,2.49238 -2.076955,2.49238 -1.147073,0 -2.07696,-1.3453 -2.076957,-2.49238 0.26944,-1.22068 0.711642,-1.19948 1.206957,-1.11922 0.460259,0.0746 0.801156,0.28517 0.837217,0.50715 0.145412,-0.50274 0.600489,-0.58518 1.051476,-0.59003 0.439939,-0.005 0.912698,0.0292 1.058262,1.2021 z"
         style="opacity:1;vector-effect:none;fill:#e74c3c;fill-opacity:1;fill-rule:evenodd;stroke:none;stroke-width:0.26458332;stroke-linecap:butt;stroke-linejoin:miter;stroke-miterlimit:4;stroke-dasharray:none;stroke-dashoffset:0;stroke-opacity:1" />
      <path
         sodipodi:nodetypes="csc"
         inkscape:connector-curvature="0"
         id="path9159"
         d="m 21.619034,257.10747 c 0,0 -0.185018,-0.93593 -0.04171,-1.22391 0.197232,-0.39639 1.043115,-0.4219 1.043115,-0.4219"
         style="fill:none;stroke:#27ae60;stroke-width:0.26458332;stroke-linecap:butt;stroke-linejoin:miter;stroke-miterlimit:4;stroke-dasharray:none;stroke-opacity:1" />
    </g>
  </g>
</svg>
